<?xml version="1.0" standalone="no"?>
<!DOCTYPE svg PUBLIC "-//W3C//DTD SVG 1.1//EN" "http://www.w3.org/Graphics/SVG/1.1/DTD/svg11.dtd" >
<svg xmlns="http://www.w3.org/2000/svg" xmlns:xlink="http://www.w3.org/1999/xlink" version="1.1">
<metadata>
Created by FontForge 20200314 at Thu Apr 30 00:42:23 2020
 By Ril
Copyright 2020 - riljs
</metadata>
<defs>
<font id="STRRETCHSANSRegular" horiz-adv-x="0" >
  <font-face 
    font-family="STRRETCH SANS"
    font-weight="400"
    font-stretch="normal"
    units-per-em="1000"
    panose-1="0 0 0 0 0 0 0 0 0 0"
    ascent="800"
    descent="-200"
    x-height="506.789"
    cap-height="698.732"
    bbox="-13 -205.101 2379.59 793.515"
    underline-thickness="0"
    underline-position="0"
    unicode-range="U+000A-F00F"
  />
<missing-glyph horiz-adv-x="527" 
d="M50 700h427v-700h-427v700zM78 680l185 -309l186 309h-371zM251 350l-180 300v-601zM264 329l-185 -308h370zM276 350l181 -303v605z" />
    <glyph glyph-name="OO.liga" unicode="OO" horiz-adv-x="1944" 
d="M549.154 701.094l846.656 0.00195312c64.1943 0 122.429 -4.09473 174.71 -12.291s96.126 -18.9668 131.527 -32.3223c35.4072 -13.3555 66.3467 -29.7422 92.8125 -49.166c26.4717 -19.4297 47.1523 -38.8477 62.042 -58.2715
c14.8896 -19.4297 26.9648 -40.6689 36.2314 -63.7363s15.2197 -43.7061 17.8652 -61.915c2.64551 -18.2148 3.96875 -37.332 3.96875 -57.3633v-27.3193c0 -19.4238 -1.32324 -38.2402 -3.96875 -56.4492c-2.64551 -18.2148 -8.60449 -39.0039 -17.8652 -62.3721
c-9.2666 -23.3682 -21.1797 -44.9209 -35.7383 -64.6514c-14.5586 -19.7246 -35.2393 -39.4551 -62.041 -59.1797c-26.8018 -19.7305 -57.7412 -36.418 -92.8115 -50.0811c-35.0762 -13.6562 -78.9141 -24.7334 -131.526 -33.2305s-111.016 -12.749 -175.203 -12.749
h-846.662c-64.1943 0 -122.76 4.25195 -175.702 12.749s-96.9492 19.5742 -132.025 33.2305c-35.0762 13.6631 -66.0098 30.3506 -92.8115 50.0811c-26.8018 19.7246 -47.6445 39.4551 -62.54 59.1797c-14.8896 19.7305 -26.8027 41.2764 -35.7383 64.6504
s-14.7207 44.1562 -17.3662 62.3711c-2.64551 18.209 -3.96875 37.0254 -3.96875 56.4492v27.3135c0 20.0312 1.32324 39.0039 3.96875 56.9062s8.43652 38.5469 17.3721 61.915c8.93652 23.3682 20.8496 44.7637 35.7393 64.1934
c14.8896 19.4238 35.5703 38.8477 62.042 58.2715s57.4111 35.8105 92.8125 49.166c35.4072 13.3555 79.5762 24.126 132.519 32.3223c52.9424 8.20215 111.508 12.2969 175.702 12.2969zM1672.77 359.656c0 16.9941 -2.32812 33.082 -6.95898 48.2598
c-4.63086 15.1719 -13.5664 30.957 -26.8018 47.3438c-13.2354 16.3926 -30.4463 30.3496 -51.6201 41.8838c-21.1797 11.5342 -49.9658 21.0957 -86.3594 28.6846c-29.9287 6.24219 -63.8926 9.91602 -101.88 11.0225
c-8.20801 0.240234 -840.774 0.306641 -846.451 0.204102c-187.663 -3.37402 -281.491 -62.5107 -281.491 -177.398v-10.9268c0 -21.8525 4.1377 -42.4912 12.4062 -61.915c8.27441 -19.4238 22.334 -38.8477 42.1904 -58.2715
c19.8506 -19.4238 50.6279 -34.9023 92.3193 -46.4365c38.4922 -10.6494 84.5977 -16.3799 138.322 -17.1973c4.46777 -0.0664062 831.911 -0.0185547 838.898 0.15625c49.75 1.21484 92.7588 6.74121 129.026 16.5908c41.3604 11.2275 72.2998 26.4053 92.8115 45.5225
c20.5117 19.123 34.9082 38.3906 43.1826 57.8145c8.27441 19.4297 12.4053 40.0615 12.4053 61.9141v12.749z" />
    <glyph glyph-name="AA.liga" unicode="AA" horiz-adv-x="2205" 
d="M1946.05 0l-71.9443 128.207h-1561.66l-68.8604 -128.207h-243.582l386.444 701.383h1408.52l409.055 -701.383h-257.973zM1643.17 539.908l-1108.9 -0.15625l-136.518 -253.168h1387.96z" />
    <glyph glyph-name="PP.liga" unicode="PP" horiz-adv-x="2339" 
d="M1961.23 233.245l-1662.33 0.000976562v-233.245h-238.903v699.729h1901.23c237.195 0 355.793 -75.8662 355.793 -227.599v-9.40527c0 -152.989 -118.598 -229.48 -355.793 -229.48zM298.903 540.781v-150.476h1658.22c73.8271 0 110.738 24.457 110.738 73.3584
v2.82031c0 49.5332 -36.9111 74.2969 -110.738 74.2969h-1658.22z" />
    <glyph glyph-name="BB.liga" unicode="BB" horiz-adv-x="2342" 
d="M60 0l-0.000976562 701.387h1928.05c101.405 0 173.351 -14.9258 215.83 -44.7822c42.4795 -29.8506 63.7256 -68.3428 63.7256 -115.482v-13.1992c0 -21.3662 -4.28125 -40.6934 -12.8447 -57.9766s-20.043 -31.1143 -34.4336 -41.4814
s-27.4102 -18.3828 -39.0586 -24.041s-23.2969 -10.0537 -34.9453 -13.1992c16.4473 -3.77051 32.5449 -9.11035 48.3066 -16.0254s33.2305 -16.8135 52.4199 -29.6943c19.1826 -12.8809 34.6016 -30.6387 46.25 -53.2617s17.4756 -48.3906 17.4756 -77.3037v-13.1992
c0 -134.491 -105.519 -201.74 -316.556 -201.74h-1934.22zM299.468 553.377v-114.063h1647.47c55.498 0 83.25 18.8584 83.25 56.5625v1.88184c0 37.0791 -27.752 55.6191 -83.25 55.6191h-1647.47zM1967.49 290.359h-1668.03v-137.643h1668.03
c35.6299 0 60.2969 6.91504 74.002 20.7402s20.5547 29.8516 20.5547 48.0781v3.77051c0 43.3633 -31.5166 65.0537 -94.5557 65.0537z" />
    <glyph glyph-name="EE.liga" unicode="EE" horiz-adv-x="2380" 
d="M60 701.389h2264.14v-159.321h-2027.75v-103.696h2014.39v-160.266h-2014.39v-115.014h2038.03v-163.092h-2274.42v701.389z" />
    <glyph glyph-name="FF.liga" unicode="FF" horiz-adv-x="2348" 
d="M60 698.123h2257.03v-158.581h-2019.69v-103.216h2006.39v-159.52h-2006.39v-276.807h-237.334v698.123z" />
    <glyph glyph-name="RR.liga" unicode="RR" horiz-adv-x="2375" 
d="M298.903 248.291l-0.000976562 -248.291h-238.903v699.729h1934.68c220.791 0 331.187 -60.502 331.187 -181.518v-11.2812c0 -73.9834 -47.1641 -125.086 -141.497 -153.301c43.0625 -11.2812 77.9287 -30.2539 104.587 -56.8994s39.9902 -61.2891 39.9902 -103.925
v-102.512c0 -42.0098 0.0361328 -90.2861 0.0361328 -90.2861h-240.166s0.198242 23.5127 0.198242 44.1992v80.8809c0 43.2607 -11.9609 74.6152 -35.8887 94.0508s-64.9395 29.1533 -123.042 29.1533h-1631.18zM298.902 540.786l0.000976562 -137.313h1681.42
c32.8096 0 57.0801 6.27246 72.7988 18.8105c15.7256 12.5381 23.585 29.1533 23.585 49.8457v0.938477c0 20.0674 -7.85938 36.3701 -23.585 48.9082s-39.9902 18.8105 -72.7998 18.8105h-1681.42z" />
    <glyph glyph-name="UU.liga" unicode="UU" horiz-adv-x="2349" 
d="M1844.13 0l-1332.47 -0.00195312c-56.0098 0 -107.124 4.48633 -153.35 13.4648s-85.1934 20.8916 -116.908 35.7451s-59.7197 32.8037 -84.0146 53.8506s-43.5264 42.4004 -57.6943 64.0674c-14.168 21.6602 -25.8105 44.8721 -34.9209 69.6299
s-15.1836 47.3506 -18.2207 67.7783s-4.55273 40.8379 -4.55273 61.2656v335.161h236.853v-322.166c0 -24.7578 3.54199 -47.8135 10.626 -69.167s19.0625 -42.4004 35.9307 -63.1348s42.6777 -37.1387 77.4355 -49.208s62.5459 -18.1064 111.129 -18.1064
c8.36523 0 1312.97 0.186523 1321.61 0.553711c40.8555 1.73828 83.1484 7.58984 111.279 17.5537c34.0781 12.0693 59.7197 28.4736 76.9238 49.208s29.3516 41.7812 36.4414 63.1348c7.08398 21.3535 10.626 44.4092 10.626 69.167v322.166h235.843v-335.161
c0 -29.0869 -3.54199 -58.4873 -10.626 -88.2002s-21.0898 -61.7402 -42.0049 -96.0957s-47.5732 -64.5254 -79.9619 -90.5215s-77.0928 -47.6562 -134.112 -64.9873s-122.308 -25.9961 -195.858 -25.9961z" />
    <glyph glyph-name="SS.liga" unicode="SS" horiz-adv-x="2343" 
d="M480.025 0c-75.8779 0 -142.183 5.96875 -198.92 17.8818s-100.485 26.333 -131.244 43.2607c-30.7588 16.9336 -55.1973 37.4639 -73.3096 61.6016c-18.1123 24.1445 -29.7363 45.9316 -34.8594 65.3672c-5.12988 19.4355 -7.69141 40.1279 -7.69141 62.0713v10.3428
h249.156c5.46582 -73.9834 59.293 -110.979 204.892 -110.979h1367.06c47.8496 0 68.127 2.03906 99.5713 6.11621s54.3438 9.87402 68.6982 17.4033c14.3545 7.52246 23.9277 15.2021 28.708 23.0439s7.17969 17.0908 7.17969 27.7471
c0 15.0459 -4.10156 26.959 -12.3037 35.7383s-27.3428 16.459 -57.416 23.0439c-30.0791 6.58496 -73.4844 10.5 -130.222 11.7568l-1386.79 1.60547l-56.082 1.20312c-248.128 6.27832 -372.198 74.6152 -372.198 205.029v8.46094
c0 22.5742 3.0791 43.417 9.23047 62.5459s18.4551 38.2461 36.9102 57.3691s42.5508 35.2695 72.2871 48.4326s69.8945 23.9814 120.479 32.4482c50.5791 8.4668 109.367 12.7002 176.357 12.7002h1382.38c69.7266 0 131.244 -4.38965 184.56 -13.1689
c53.3154 -8.77344 95.873 -20.0605 127.654 -33.8555c31.7871 -13.7949 57.7598 -30.7227 77.9287 -50.79s34.0059 -39.9717 41.5283 -59.7197c7.5166 -19.748 11.2812 -40.9092 11.2812 -63.4834v-9.40527h-248.134c-1.38867 7.52246 -3.27051 13.9512 -5.63965 19.2793
c-2.39355 5.32812 -8.03418 12.3818 -16.916 21.1611c-8.8877 8.7793 -20.5059 15.9893 -34.8604 21.6299c-14.3545 5.64648 -35.7148 10.6553 -64.0869 15.0449s-50.0752 6.58496 -87.665 6.58496h-1347.26c-57.417 0 -93.5762 -3.29492 -124.335 -9.87402
c-30.7588 -6.58496 -49.3887 -13.4824 -55.8828 -20.6924s-9.74121 -17.084 -9.74121 -29.6221c0 -11.9131 3.58984 -21.6367 10.7637 -29.1592c7.17969 -7.52246 24.2637 -14.4199 51.2646 -20.6924s65.1084 -9.71777 114.329 -10.3428l1367.78 -0.824219l72.0117 -1.05859
c142.183 -2.50781 244.887 -20.2178 308.118 -53.1357s94.8447 -84.4893 94.8447 -154.715v-13.1631c0 -25.708 -3.0791 -48.752 -9.23047 -69.126c-6.15137 -20.3799 -18.7979 -41.2285 -37.9385 -62.5459s-44.6016 -39.1895 -76.3887 -53.6094
s-75.1924 -26.1768 -130.222 -35.2695s-119.452 -13.6387 -193.279 -13.6387h-1382.36z" />
    <glyph glyph-name="WW.liga" unicode="WW" horiz-adv-x="2344" 
d="M310.73 0l-309.731 690.757h257.095l194.344 -475.354l136.614 360.063h1180.95l150.078 -346.136l190.291 461.427h231.79l-304.673 -690.751h-237.863l-160.506 409.584l-916.431 -0.0664062l-151.828 -409.524h-260.125z" />
    <glyph glyph-name="JJ.liga" unicode="JJ" horiz-adv-x="2360" 
d="M416.082 0.00585938c-60.7002 0 -115.085 6.24707 -163.169 18.7607c-48.084 12.5078 -86.9551 28.9307 -116.619 49.2627s-54.0488 43.9473 -73.1416 70.8457s-32.3945 53.7969 -39.8994 80.6953s-11.251 54.4277 -11.251 82.5771v5.62891h241.43
c0.679688 -9.38086 2.04492 -18.1426 4.08984 -26.2725c2.04492 -8.13574 6.99414 -19.3926 14.8359 -33.7832c7.8418 -14.3838 17.7344 -26.585 29.665 -36.5918c11.9365 -10.0127 29.6641 -18.7686 53.1943 -26.2734s50.9814 -11.2568 82.3477 -11.2568h1454.83
c61.3799 0 107.245 15.1719 137.595 45.5098s45.5215 72.7207 45.5215 127.143v362.198h239.379v-367.826c0 -31.2764 -3.24121 -61.6201 -9.71777 -91.0205s-18.9248 -59.7383 -37.3379 -91.0146s-41.9434 -58.1807 -70.5859 -80.7012s-67.1768 -41.126 -115.598 -55.8291
s-103.667 -22.0518 -165.727 -22.0518h-1499.85z" />
    <glyph glyph-name="DD.liga" unicode="DD" horiz-adv-x="2404" 
d="M60 0v701.377h1775.2c71.2598 0 135.664 -4.40234 193.219 -13.2002s105.519 -21.5225 143.891 -38.1797s71.2598 -35.1904 98.6689 -55.6182c27.4092 -20.4219 48.3057 -43.5254 62.6963 -69.2871s24.8359 -51.0664 31.3486 -75.8896
c6.50684 -24.8301 9.7666 -51.3799 9.7666 -79.6611v-28.2812c0 -33.3086 -4.11328 -64.5791 -12.334 -93.7988c-8.2207 -29.2256 -24.4932 -59.5459 -48.8174 -90.9727s-55.6729 -58.1387 -94.0391 -80.1299c-38.3721 -21.9971 -90.4424 -40.2236 -156.224 -54.6797
c-65.7754 -14.4502 -141.491 -21.6787 -227.142 -21.6787h-1776.23zM299.469 535.453v-366.714h1517.23c204.867 0 307.307 60.333 307.307 180.999v5.65918c0 120.035 -102.434 180.056 -307.307 180.056h-1517.23z" />
    <glyph glyph-name="CC.liga" unicode="CC" horiz-adv-x="2410" 
d="M541.831 0c-60.9824 0 -116.823 4.40332 -167.529 13.2012s-93.3594 20.2656 -127.961 34.4092s-65.2646 31.4268 -91.9883 51.8545c-26.7236 20.4219 -47.6201 41.0059 -62.6963 61.7461s-27.5781 43.0498 -37.5127 66.9297
c-9.93457 23.8857 -16.4473 45.5645 -19.5264 65.0479s-4.61816 38.9609 -4.61816 58.4443v27.3369c0 30.1699 3.08496 58.7637 9.24902 85.7881s20.043 57.1943 41.625 90.5029s49.8457 61.9023 84.79 85.7881s84.79 43.9951 149.543 60.334
s140.294 24.5107 226.623 24.5107h1324.9c84.2793 0 158.618 -7.07227 223.028 -21.21s114.256 -31.4268 149.543 -51.8486c35.2871 -20.4277 64.0674 -43.9941 86.335 -70.7061s36.6582 -50.5918 43.165 -71.6514c6.50684 -21.0527 9.7666 -41.3184 9.7666 -60.8018
v-10.373h-253.859c-2.05664 7.54102 -4.62402 14.2998 -7.70898 20.2715s-10.9629 15.5508 -23.6396 28.75c-12.6768 13.1934 -28.0957 24.1982 -46.25 32.9902c-18.1543 8.79785 -44.8779 16.8135 -80.165 24.042s-55.0898 10.8428 -100.997 10.8428
c-7.86523 0 -1319.13 -0.108398 -1326.66 -0.319336c-44.9688 -1.27441 -84.0264 -6.35547 -117.185 -15.2373c-38.7148 -10.373 -67.832 -24.667 -87.3643 -42.8936c-19.5254 -18.2266 -33.4043 -37.3975 -41.625 -57.5068
c-8.2207 -20.1152 -12.334 -42.1064 -12.334 -65.9922v-11.3115c0 -22.6289 4.62402 -44.4697 13.873 -65.5225s23.8076 -41.4746 43.6826 -61.2773c19.8682 -19.7959 49.334 -35.665 88.3857 -47.6016c32.6836 -9.99414 70.166 -15.8027 112.453 -17.4326
c8.24414 -0.318359 1324.57 -0.474609 1333.17 -0.474609c156.903 0 224.267 40.5371 252.361 121.611c0.685547 1.25684 1.02832 2.20117 1.02832 2.82617h253.859v-10.3672c0 -20.7402 -3.5957 -42.1064 -10.7939 -64.1094
c-7.19238 -21.9971 -22.0996 -46.6641 -44.71 -74.001s-51.7334 -51.3789 -87.3574 -72.1191s-85.4756 -38.3359 -149.543 -52.792c-64.0674 -14.4502 -137.552 -21.6787 -220.46 -21.6787h-1324.9z" />
    <glyph glyph-name="HH.liga" unicode="HH" horiz-adv-x="2423" 
d="M60 0v698.123h238.356v-254.286h1825.64v254.286h238.356v-698.123h-238.356v274.931h-1825.64v-274.931h-238.356z" />
    <glyph glyph-name="oo.liga" unicode="oo" horiz-adv-x="1595" 
d="M435.217 0.00585938c-58.1748 0 -109.722 5.17969 -154.643 15.5586c-44.9268 10.373 -80.96 23.5664 -108.104 39.5742s-49.4482 35.2754 -66.8994 57.8076c-17.4512 22.5264 -29.4121 44.6074 -35.877 66.25s-9.69434 44.3193 -9.69434 68.0303v16.0078
c0 23.7109 3.22949 46.2432 9.69434 67.585s18.2637 42.9844 35.3896 64.9219s39.2676 40.7598 66.4121 56.4668s63.1836 28.4561 108.104 38.2402c44.9268 9.79004 96.4746 14.6846 154.649 14.6846h727.366c248.855 0 373.28 -80.6348 373.28 -241.893v-16.0078
c0 -164.817 -124.425 -247.227 -373.28 -247.227h-726.398zM1134.68 129.484c58.2461 2.59766 111.917 14.5693 137.475 35.9297c29.0869 24.3066 43.6279 53.3574 43.6279 87.1533v4.44434c0 34.3848 -14.541 63.1416 -43.6279 86.2637s-71.9746 34.6797 -138.55 34.6797
h-686.187c-67.8682 0 -94.4414 -11.4141 -123.21 -34.2412c-28.7627 -22.8271 -43.1465 -51.7275 -43.1465 -86.708v-4.4375c0 -33.7959 14.541 -62.8467 43.6279 -87.1533s59.8936 -36.4658 127.118 -36.4658c8.16016 0 674.82 0.180664 682.872 0.535156z" />
    <glyph glyph-name=".notdef" horiz-adv-x="527" 
d="M50 700h427v-700h-427v700zM78 680l185 -309l186 309h-371zM251 350l-180 300v-601zM264 329l-185 -308h370zM276 350l181 -303v605z" />
    <glyph glyph-name=".null" 
 />
    <glyph glyph-name=".null" 
 />
    <glyph glyph-name="LF" unicode="&#xa;" 
 />
    <glyph glyph-name="controlCR" unicode="&#xd;" 
 />
    <glyph glyph-name="space" unicode=" " horiz-adv-x="536" 
 />
    <glyph glyph-name="exclam" unicode="!" horiz-adv-x="320" 
d="M43 611.054h233.985l-59.3594 -408.73h-115.267zM264.086 162.081v-138.081h-208.181v138.081h208.181z" />
    <glyph glyph-name="quotedbl" unicode="&#x22;" horiz-adv-x="417" 
d="M186.561 718.867v-194.896h-156.561v194.896h156.561zM386.996 718.867v-194.896h-156.561v194.896h156.561z" />
    <glyph glyph-name="quotedbl" unicode="&#x201d;" horiz-adv-x="417" 
d="M186.561 718.867v-194.896h-156.561v194.896h156.561zM386.996 718.867v-194.896h-156.561v194.896h156.561z" />
    <glyph glyph-name="quotedbl" unicode="&#x201c;" horiz-adv-x="417" 
d="M186.561 718.867v-194.896h-156.561v194.896h156.561zM386.996 718.867v-194.896h-156.561v194.896h156.561z" />
    <glyph glyph-name="numbersign" unicode="#" horiz-adv-x="726" 
d="M330.363 24l50.7529 169.653h-120.432l-50.7539 -169.646h-123.012l50.7539 169.646h-106.673l25.8096 87.5859h106.667l30.1094 98.6328h-107.533l26.6699 87.5859h106.667l43.0146 143.602h123.878l-43.0146 -143.608h120.432l43.0146 143.608h123.878
l-43.0146 -143.608h107.527l-26.6641 -87.5859h-107.533l-30.1094 -98.6328h109.247l-26.6641 -87.5859h-108.387l-51.6133 -169.646h-123.018zM407.786 281.239l29.249 98.627h-120.438l-29.2432 -98.627h120.432z" />
    <glyph glyph-name="dollar" unicode="$" horiz-adv-x="871" 
d="M386.378 -35.458l0.000976562 48.9141c-228.254 4.73242 -342.378 74.6934 -342.378 209.889v8.67773h202.161c0 -22.623 10.3252 -43.3994 30.9697 -62.3359s57.0625 -30.7773 109.254 -35.5098v130.191l-33.5488 0.788086
c-200.146 5.26172 -300.223 62.3359 -300.223 171.229v7.10156c0 18.9424 2.58008 36.2969 7.73926 52.0762s15.1953 31.4326 30.1084 46.9473c14.9072 15.5205 34.4092 28.6719 58.499 39.4541c24.084 10.7822 56.3467 19.4658 96.7754 26.0381
s87.3096 9.86133 140.649 9.86133v47.3506h80.0029v-47.3438c52.7627 -0.529297 99.499 -4.60645 140.223 -12.2314c40.7178 -7.625 73.4072 -17.2285 98.0625 -28.7988c24.6611 -11.5703 44.8789 -25.3828 60.6523 -41.4268s26.5254 -32.0879 32.2559 -48.1318
c5.7373 -16.0439 8.60547 -33.2725 8.60547 -51.6855v-7.88965h-201.302c-4.58789 43.6641 -50.7529 67.8623 -138.496 72.5947v-108.099l37.8486 -0.788086c115.844 -3.15723 198.716 -17.8838 248.609 -44.1865c49.8994 -26.3027 74.8438 -68.3848 74.8438 -126.246
v-11.0469c0 -21.5703 -2.58008 -41.0303 -7.73926 -58.3916c-5.16602 -17.3545 -15.6299 -34.9805 -31.4033 -52.8643s-36.5625 -32.7432 -62.3662 -44.5781c-25.8096 -11.835 -60.79 -21.5645 -104.947 -29.1953s-95.7773 -11.4434 -154.842 -11.4434v-48.9199h-80.0156z
M252.194 448.225c0 -8.94238 2.71191 -16.5645 8.16016 -22.8789s18.4971 -12.3643 39.1416 -18.1494s49.6055 -9.73047 86.8887 -11.8408v106.528c-24.6611 -0.529297 -45.7383 -2.10449 -63.2256 -4.73242c-17.4932 -2.62793 -30.6807 -5.52051 -39.5684 -8.67773
s-15.7676 -7.23438 -20.6445 -12.2314s-7.88965 -9.33887 -9.03223 -13.0195s-1.71973 -8.41895 -1.71973 -14.2041v-0.793945zM624.664 202.835c0 18.9365 -10.7461 33.0088 -32.2559 42.2158c-21.5039 9.20703 -63.5137 14.8594 -126.023 16.9639v-129.404
c33.8379 1.05273 61.9385 3.68066 84.3027 7.88965s38.5645 9.86133 48.6006 16.9629s16.7773 13.8066 20.2168 20.1211s5.15918 13.6748 5.15918 22.0938v3.15723z" />
    <glyph glyph-name="percent" unicode="%" horiz-adv-x="1229" 
d="M274.59 301.075c-39.5684 0 -74.5537 3.93848 -104.946 11.8281c-30.3984 7.88965 -54.0498 17.6191 -70.9717 29.1953c-16.916 11.5703 -30.6807 25.251 -41.2949 41.0303c-10.6074 15.7793 -17.4932 30.248 -20.6445 43.3994
c-3.15723 13.1514 -4.73242 26.3027 -4.73242 39.4541v13.416c0 13.6748 1.5752 26.959 4.73242 39.8457c3.15723 12.8926 10.0371 27.0908 20.6445 42.6113s24.3721 28.9307 41.2939 40.2422c16.916 11.3115 40.5732 20.7832 70.9717 28.4082
s65.3789 11.4434 104.947 11.4434h20.6445c39.5684 0 74.4102 -3.8125 104.52 -11.4434s53.6221 -17.0957 70.5381 -28.4072s30.6807 -24.7217 41.2949 -40.2422c10.6074 -15.5146 17.4932 -29.7188 20.6445 -42.6113c3.15723 -12.8867 4.72656 -26.1709 4.72656 -39.8457
v-13.416c0 -17.3545 -3.00684 -34.3242 -9.03223 -50.8916c-6.01953 -16.5674 -16.916 -34.0605 -32.6895 -52.4736c-15.7676 -18.4072 -40.7178 -33.2725 -74.8379 -44.5781s-75.8418 -16.9648 -125.164 -16.9648h-20.6445zM284.056 398.12
c39.5684 0 68.5293 6.96875 86.8828 20.9082s27.5303 30.6387 27.5303 50.1045v6.31445c0 46.292 -38.1377 69.4375 -114.413 69.4375c-75.126 0 -112.692 -23.1455 -112.692 -69.4375v-4.73242c0 -20.5117 9.03223 -37.7402 27.0967 -51.6855
c18.0645 -13.9395 46.5986 -20.9092 85.5957 -20.9092zM873.322 634.834h170.326l-689.915 -587.054h-169.466zM955.04 41.4658l-21.5059 0.000976562c-39.5684 0 -74.4102 3.94531 -104.52 11.835c-30.1094 7.89551 -53.6221 17.752 -70.5381 29.5928
c-16.916 11.835 -30.6807 25.6416 -41.2949 41.4268c-10.6074 15.7793 -17.6309 30.248 -21.0762 43.3994s-5.15918 26.3027 -5.15918 39.4541v13.416c0 13.1514 1.71973 26.3027 5.15918 39.4541s10.4629 27.3555 21.0771 42.6113
c10.6074 15.2559 24.3721 28.6719 41.2939 40.2422c16.916 11.5703 40.4346 21.1738 70.5381 28.7988c30.1094 7.625 64.9512 11.4434 104.52 11.4434h21.5098c48.7451 0 90.1777 -5.52637 124.305 -16.5732c34.1201 -11.0469 59.0703 -25.5098 74.8379 -43.3994
c15.791 -17.8838 26.832 -35.1123 33.1162 -51.6855c6.30859 -16.5674 9.46582 -33.5312 9.46582 -50.8926v-13.416c0 -13.1514 -1.5752 -26.3027 -4.73242 -39.4541s-10.0371 -27.6201 -20.6445 -43.3994c-10.6074 -15.7852 -24.2275 -29.5918 -40.8604 -41.4268
c-16.6328 -11.8408 -40.1455 -21.6973 -70.5439 -29.5928c-30.3926 -7.88965 -65.3789 -11.835 -104.947 -11.835zM943.865 139.312c39.5752 0 68.5225 6.96777 86.876 20.9072c18.3467 13.9395 27.5293 30.6387 27.5293 50.1045v6.31445
c0 19.9893 -9.03223 36.5625 -27.0967 49.708c-18.0645 13.1514 -47.1699 19.7305 -87.3164 19.7305c-40.1455 0 -69.1064 -6.57227 -86.8818 -19.7295c-17.7754 -13.1514 -26.6631 -29.7188 -26.6631 -49.708v-4.73242c0 -20.5117 9.03223 -37.7402 27.0967 -51.6855
c18.0645 -13.9395 46.8809 -20.9092 86.4561 -20.9092z" />
    <glyph glyph-name="ampersand" unicode="&#x26;" horiz-adv-x="997" 
d="M967.084 167.726l-53.332 -128.624c-80.2861 0 -151.119 15.5146 -212.48 46.5566c-75.7041 -32.0879 -166.604 -48.1318 -272.699 -48.1318c-264.377 0 -396.571 59.1787 -396.571 177.536v8.67773c0 76.2754 65.9502 123.619 197.855 142.032
c-56.7734 38.9248 -85.1631 82.8535 -85.1631 131.773v6.31445c0 15.2559 1.86426 28.9307 5.59277 41.0303c3.72852 12.0986 11.3232 24.8535 22.7969 38.2695c11.4678 13.416 26.8145 24.5947 46.0215 33.5371c19.2129 8.94238 45.5938 16.3086 79.1426 22.0938
s72.6904 8.67773 117.419 8.67773h45.5938c176.634 0 264.954 -46.5566 264.954 -139.663v-3.94531c0 -72.5889 -69.6777 -120.721 -209.04 -144.396l174.632 -108.099c28.6719 41.5596 43.0078 92.3193 43.0078 152.286h188.396
c-3.43945 -86.2695 -33.2607 -160.439 -89.4629 -222.511c34.9805 -8.94238 79.4258 -13.416 133.337 -13.416zM422.553 151.927c55.0537 0.00585938 102.077 4.74414 141.081 14.209l-258.074 153.867c-45.8828 -15.7852 -68.8184 -40.7715 -68.8184 -74.9639v-2.36914
c0 -25.251 15.1963 -46.6826 45.5947 -64.3086c30.3926 -17.6191 77.1357 -26.4346 140.217 -26.4346zM336.528 503.066c0 -13.6807 7.02148 -26.6992 21.0752 -39.0566c14.0479 -12.3633 39.4307 -29.8506 76.1367 -52.4736
c77.9951 21.5645 116.992 47.8672 116.992 78.9092c0 18.9365 -8.31641 33.2725 -24.9492 43.002s-46.7363 14.5947 -90.3281 14.5947c-37.2715 0 -63.0811 -3.94531 -77.417 -11.835c-14.3418 -7.88965 -21.5098 -18.9365 -21.5098 -33.1406z" />
    <glyph glyph-name="quotesingle" unicode="'" horiz-adv-x="397" 
d="M336.999 672h-184.95l-92.0488 121.515h199.575z" />
    <glyph glyph-name="quotesingle" unicode="&#x2019;" horiz-adv-x="397" 
d="M336.999 672h-184.95l-92.0488 121.515h199.575z" />
    <glyph glyph-name="quotesingle" unicode="&#x2018;" horiz-adv-x="397" 
d="M336.999 672h-184.95l-92.0488 121.515h199.575z" />
    <glyph glyph-name="parenleft" unicode="(" horiz-adv-x="334" 
d="M45 315.272c0 136.241 52.1855 259.597 156.567 370.064h104.947c-32.1123 -48.9199 -57.9219 -105.603 -77.418 -170.043c-19.502 -64.4404 -29.25 -131.112 -29.25 -200.021c0 -68.3857 9.74805 -134.931 29.25 -199.63
c19.4961 -64.7051 45.3057 -121.779 77.418 -171.229h-104.947c-104.376 107.311 -156.567 230.93 -156.567 370.857z" />
    <glyph glyph-name="parenright" unicode=")" horiz-adv-x="334" 
d="M131.953 -55.585l-104.953 -0.000976562c32.1182 49.4492 57.9219 106.523 77.4238 171.229c19.4961 64.6992 29.2441 131.244 29.2441 199.63c0 68.9082 -9.74805 135.586 -29.2441 200.021c-19.502 64.4404 -45.3057 121.117 -77.4238 170.043h104.953
c104.376 -114.147 156.561 -237.502 156.561 -370.063c0 -139.928 -52.1846 -263.547 -156.561 -370.857z" />
    <glyph glyph-name="asterisk" unicode="*" horiz-adv-x="414" 
d="M246.054 544.098l84.3145 64.6992l52.4736 -88.374l-111.833 -29.1953l111.833 -29.9834l-52.4736 -87.5859l-84.3086 63.917l24.9502 -91.5312h-128.178l25.8096 91.5312l-83.4434 -63.917l-54.1934 87.5859l110.113 29.9834l-110.119 29.1953l54.1934 88.374
l83.4434 -64.6992l-25.8096 90.7432h128.178z" />
    <glyph glyph-name="plus" unicode="+" horiz-adv-x="533" 
d="M338.108 236.388l-0.000976562 -138.869h-144.521v138.875h-162.587v108.893h162.587v138.869h144.522v-138.875h163.44v-108.893h-163.44z" />
    <glyph glyph-name="comma" unicode="," horiz-adv-x="256" 
d="M81.6328 -98.7197c17.7754 31.5645 28.3838 57.3438 31.8291 77.333h-89.4629v138.081h207.32v-114.412c0 -14.7266 -4.15527 -31.6904 -12.4717 -50.8975c-8.31641 -19.2012 -17.6309 -35.9004 -27.9561 -50.1045h-109.259z" />
    <glyph glyph-name="hyphen" unicode="-" horiz-adv-x="329" 
d="M26 350.019h276.133v-135.718h-276.133v135.718z" />
    <glyph glyph-name="period" unicode="." horiz-adv-x="256" 
d="M231.32 116.689v-138.082h-207.32v138.082h207.32z" />
    <glyph glyph-name="slash" unicode="/" horiz-adv-x="455" 
d="M440.745 693.226l-299.363 -740.921h-145.382l298.503 740.921h146.242z" />
    <glyph glyph-name="zero" unicode="0" horiz-adv-x="1118" 
d="M1075.86 370.593v-27.1455c0 -27.7461 -2.95898 -54.7402 -8.88184 -80.9834c-5.91699 -26.2432 -19.3994 -55.499 -40.4463 -87.7734c-21.041 -32.2744 -48.667 -60.1768 -82.8652 -83.7012s-82.5342 -43.4346 -145.015 -59.7188s-135.153 -24.4326 -218.02 -24.4326
h-43.4053c-82.8662 0 -155.371 8.14258 -217.526 24.4326c-62.1494 16.2842 -110.323 36.0449 -144.521 59.2686s-61.8184 51.126 -82.8652 83.7012s-34.6914 61.9814 -40.9395 88.2246c-6.25391 26.2432 -9.375 53.2314 -9.375 80.9834v27.1445
c0 27.7461 3.12109 54.7471 9.36914 80.9834c6.24805 26.2373 19.8926 55.3486 40.9395 87.3223s48.667 59.4189 82.8652 82.3428s82.3779 42.3838 144.527 58.3672s134.66 23.9756 217.526 23.9756h43.4053c82.8662 0 155.539 -7.99219 218.02 -23.9756
s110.816 -35.4434 145.015 -58.3672s61.8242 -50.3691 82.8652 -82.3428c21.0469 -31.9736 34.5293 -61.0791 40.4463 -87.3223s8.88184 -53.2373 8.88184 -80.9834zM835.16 364.26c0 21.1133 -4.12207 41.167 -12.3428 60.1699
c-8.22656 19.0029 -21.877 37.5547 -40.9395 55.6494c-19.0684 18.0947 -47.6807 32.5752 -85.8242 43.4355c-38.1436 10.8545 -83.8584 16.2842 -137.126 16.2842c-44.0664 0 -82.8652 -3.77051 -116.408 -11.3115c-33.5371 -7.54102 -60.1768 -17.042 -79.9072 -28.5039
c-19.7305 -11.4561 -35.8408 -25.1846 -48.3369 -41.168s-20.8848 -31.5225 -25.1543 -46.5986c-4.27539 -15.082 -6.41016 -31.0723 -6.41016 -47.958v-10.8604c0 -21.1133 4.10742 -41.4688 12.3281 -61.0791c8.2207 -19.6035 21.8652 -38.9072 40.9404 -57.9102
s47.6875 -34.2354 85.8311 -45.6973s83.8516 -17.1924 137.125 -17.1924c53.2676 0 98.9824 5.57422 137.126 16.7354s66.7559 26.0928 85.8242 44.7891c19.0752 18.7021 32.7197 37.7051 40.9404 57.0088s12.334 39.8154 12.334 61.5303v12.6768z" />
    <glyph glyph-name="one" unicode="1" horiz-adv-x="502" 
d="M205.271 433.289h-177.272v131.581c112.031 6.26562 187.855 51.0664 227.479 134.401h186.49v-699.266h-236.696v433.283z" />
    <glyph glyph-name="two" unicode="2" horiz-adv-x="1010" 
d="M959.566 -0.0419922l-914.561 -0.00390625v77.6035c0 17.2402 0.673828 32.7969 2.01465 46.6523s4.70215 30.4883 10.0723 49.8877s12.9287 36.8027 22.6641 52.1973c9.73535 15.4004 23.8369 32.0273 42.3047 49.8877s40.291 33.874 65.4697 48.042
c25.1846 14.168 56.9121 27.873 95.1816 41.1143c38.2754 13.2412 81.585 24.4805 129.934 33.7236l175.257 33.2607c46.334 8.00391 76.3838 16.3203 90.1484 24.9434s20.6445 19.4053 20.6445 32.334c0 10.4697 -3.86035 19.0928 -11.582 25.8701
c-7.72168 6.77148 -26.1895 12.7793 -55.3965 18.0166c-29.2139 5.2373 -69.667 7.85352 -121.371 7.85352c-44.3193 0 -81.248 -3.23535 -110.792 -9.7002c-29.5439 -6.4707 -50.6934 -15.4004 -63.4541 -26.79c-12.7607 -11.3955 -21.3184 -21.5586 -25.6846 -30.4883
s-6.87988 -18.9424 -7.55371 -30.0254h-244.755v7.39062c0 19.7061 2.01465 38.4922 6.04395 56.3525s14.6006 39.1064 31.7266 63.75c17.1201 24.6377 39.9531 45.7334 68.4932 63.2871s70.165 32.6416 124.894 45.2695c54.7227 12.6279 119.019 18.9424 192.882 18.9424
h40.29c68.4873 0 128.249 -4.00488 179.285 -12.0088c51.0303 -8.00391 91.8262 -18.3232 122.375 -30.9512c30.5547 -12.6279 55.2275 -28.3291 74.0312 -47.1152c18.8105 -18.7861 31.5654 -37.8789 38.2764 -57.2783c6.7168 -19.3994 10.0723 -40.8018 10.0723 -64.2061
v-1.8457c0 -28.3291 -3.69238 -52.2021 -11.0771 -71.6016s-21.1494 -38.0293 -41.2949 -55.8896c-20.1455 -17.8662 -49.5215 -33.1045 -88.1338 -45.7324c-38.6064 -12.6279 -88.1279 -23.5605 -148.563 -32.7969l-205.475 -31.4082
c-131.611 -22.1719 -197.417 -50.8145 -197.417 -85.9209h474.397v88.6748h230.653v-251.291z" />
    <glyph glyph-name="three" unicode="3" horiz-adv-x="1014" 
d="M480.605 0c-54.7832 0 -104.779 3.48828 -149.995 10.4521s-82.6738 16.0439 -112.374 27.2471s-55.7744 24.5234 -78.2168 39.9541c-22.4424 15.4365 -39.7676 30.7227 -51.9814 45.8643c-12.207 15.1357 -21.9492 31.3301 -29.207 48.583
s-11.8818 31.7871 -13.8604 43.5918s-2.9707 23.7656 -2.9707 35.8711v7.26465h242.565c11.8828 -68.415 84.1523 -102.62 216.821 -102.62c40.2607 0 74.7539 1.81641 103.462 5.44824c28.7148 3.63184 50.4961 8.02148 65.3438 13.1689
c14.8535 5.14746 26.5674 11.5039 35.1484 19.0693c8.58691 7.57129 13.7041 13.9277 15.3457 19.0693c1.65332 5.14746 2.4707 11.3535 2.4707 18.6182c0 35.1123 -34.3193 52.6719 -102.97 52.6719h-260.384v157.108h248.507c64.0254 0 96.0352 14.8291 96.0352 44.4932
c0 6.05566 -0.992188 11.3535 -2.9707 15.8936s-7.26465 9.6875 -15.8398 15.4365c-8.58105 5.74902 -20.2949 10.4453 -35.1484 14.0713c-14.8477 3.63184 -36.1357 6.8125 -63.8574 9.53613s-61.0547 4.08887 -99.998 4.08887
c-36.9648 0 -68.9746 -2.42383 -96.0352 -7.26465s-46.8633 -9.83789 -59.4072 -14.9854c-12.5381 -5.14746 -22.7666 -12.5625 -30.6924 -22.25c-7.91992 -9.68164 -12.2139 -15.7432 -12.875 -18.1602c-0.661133 -2.42383 -1.65332 -7.26465 -2.9707 -14.5293h-240.587
v9.08008c0 10.8965 0.824219 21.6426 2.47168 32.2383s5.94141 23.6084 12.875 39.0508c6.92773 15.4365 16.0078 29.6641 27.2285 42.6836s27.5537 26.4893 49.0039 40.4102c21.4502 13.9268 46.3701 25.7314 74.7539 35.4189
c28.3838 9.68164 64.5186 17.5596 108.411 23.6094s92.5713 9.08105 146.031 9.08105h41.583c75.2471 0 140.752 -3.78223 196.527 -11.3535c55.7754 -7.56543 98.8438 -17.1025 129.206 -28.6064s54.458 -25.5811 72.2764 -42.2266
c17.8242 -16.6514 29.208 -31.9375 34.1631 -45.8643c4.94922 -13.9268 7.42676 -29.3633 7.42676 -46.3154v-5.44824c0 -32.0879 -12.2129 -58.1201 -36.6338 -78.0967c-24.4209 -19.9824 -51.4814 -32.9951 -81.1885 -39.0508
c16.501 -4.23926 32.1777 -10.1387 47.0312 -17.71c14.8477 -7.57129 29.7012 -17.71 44.5547 -30.4229s26.7363 -29.2139 35.6426 -49.4912c8.91211 -20.2832 13.3682 -42.834 13.3682 -67.6572v-6.35645c0 -153.776 -147.192 -230.665 -441.57 -230.665h-46.5205z" />
    <glyph glyph-name="four" unicode="4" horiz-adv-x="1010" 
d="M30 277.252l536.89 424.793h257.173v-394.719h154.715v-162.587h-154.715v-144.727h-235.656v144.727h-558.406v132.513zM588.406 307.326v219.913l-279.711 -219.913h279.711z" />
    <glyph glyph-name="five" unicode="5" horiz-adv-x="981" 
d="M522.377 -0.0898438l-47.3359 0.00195312c-51.7041 0 -99.042 2.92871 -142.015 8.78027c-42.9785 5.85156 -78.7344 13.5488 -107.269 23.0918c-28.54 9.5498 -53.8809 20.9453 -76.0469 34.1865c-22.1533 13.2412 -39.2793 26.4824 -51.3662 39.7236
s-21.9912 27.2529 -29.7129 42.04c-7.72168 14.7812 -12.7549 27.873 -15.1064 39.2627c-2.35156 11.3955 -3.52441 22.6348 -3.52441 33.7236v6.4707h247.773c13.4277 -45.5762 80.2432 -68.3672 200.435 -68.3672c77.2188 0 128.754 7.85352 154.605 23.5605
s38.7803 35.876 38.7803 60.5137v5.54492c0 24.6377 -12.9287 44.8066 -38.7803 60.5137s-77.3867 23.5605 -154.605 23.5605c-33.5732 0 -63.4541 -1.8457 -89.6426 -5.54395c-26.1885 -3.69238 -45.9971 -7.69727 -59.4248 -12.0088s-24.6787 -9.54297 -33.7412 -15.707
c-9.06836 -6.1582 -14.6064 -10.7764 -16.6211 -13.8555c-2.00879 -3.0791 -3.35547 -5.85156 -4.0293 -8.31738h-228.639v422.188h818.868v-159.826h-588.215v-122.873c59.0889 42.4971 148.059 63.749 266.909 63.749h9.0625c71.8486 0 132.446 -5.85156 181.805 -17.5537
c49.3525 -11.7021 86.9551 -28.792 112.807 -51.2764c25.8516 -22.4785 43.9824 -46.6523 54.3916 -72.5225c10.4092 -25.8643 15.6104 -55.7393 15.6104 -89.6133v-5.54492c0 -24.6377 -3.35547 -47.5791 -10.0723 -68.8311
c-6.71094 -21.2461 -19.3027 -42.9609 -37.7705 -65.1328s-42.6357 -41.1143 -72.5166 -56.8154c-29.8809 -15.707 -70.0029 -28.4854 -120.366 -38.3418s-108.447 -14.7812 -174.247 -14.7812z" />
    <glyph glyph-name="six" unicode="6" horiz-adv-x="1024" 
d="M501.75 -0.0117188c-73.1357 0 -137.622 7.03027 -193.47 21.0537c-55.8477 14.0293 -100.228 32.0156 -133.14 53.9707s-59.6719 48.4805 -80.2803 79.582c-20.6143 31.1016 -34.4092 61.5957 -41.3848 91.4766c-6.98145 29.8809 -10.4756 61.8965 -10.4756 96.0469
v21.9551c0 33.543 3.9873 65.5586 11.9668 96.0527s22.6045 61.1387 43.8799 91.9336s48.2041 57.1699 80.7793 79.125s75.626 39.9414 129.152 53.9707c53.5195 14.0293 114.851 21.041 183.993 21.041h39.8936c79.7812 0 148.263 -6.70508 205.438 -20.127
c57.1758 -13.416 100.395 -31.1016 129.645 -53.0566c29.2559 -21.9551 50.1943 -44.5176 62.8291 -67.6934s18.9492 -47.2656 18.9492 -72.2637v-3.66211h-239.349c-8.6416 12.8086 -17.9502 22.2559 -27.9268 28.3535c-33.9102 20.7344 -90.4189 31.1016 -169.538 31.1016
c-40.5547 0 -76.124 -4.11914 -106.709 -12.3516s-53.8574 -18.1426 -69.8115 -29.7305c-15.96 -11.5879 -28.7568 -25.3047 -38.3965 -41.1621s-15.791 -29.5742 -18.4492 -41.1621s-3.9873 -23.1758 -3.9873 -34.7637v-3.66211
c29.2559 18.9062 57.5137 32.3223 84.7725 40.248c57.1758 17.0781 131.641 25.6113 223.395 25.6113h12.9648c256.638 0 384.953 -70.1289 384.953 -210.394v-8.23242c0 -22.5625 -2.98828 -43.6035 -8.97754 -63.1172
c-5.9834 -19.5137 -18.4492 -40.0977 -37.3975 -61.7461s-43.7178 -40.0977 -74.2959 -55.3418c-30.585 -15.25 -72.7998 -27.9023 -126.656 -37.9629s-116.686 -15.0938 -188.486 -15.0938h-43.8809zM305.285 236.023l-0.000976562 -2.75391
c0 -9.14648 2.98828 -17.8359 8.97754 -26.0684c5.9834 -8.23242 16.1221 -16.6152 30.416 -25.1543s36.7305 -15.25 67.3154 -20.127s67.4834 -7.31836 110.696 -7.31836c143.608 0 215.415 25.3105 215.415 75.9258v3.66211c0 9.75391 -2.48926 18.4434 -7.48047 26.0684
c-4.98535 7.625 -14.4629 15.5508 -28.4199 23.7832c-13.9629 8.23242 -36.0684 14.4863 -66.3164 18.7559c-30.2539 4.26367 -67.9824 6.4043 -113.191 6.4043c-144.937 0 -217.411 -24.3965 -217.411 -73.1777z" />
    <glyph glyph-name="seven" unicode="7" horiz-adv-x="981" 
d="M38 703.583h916.544v-148.467c-6.18164 -6.30176 -20.6201 -20.9629 -43.2969 -43.9707c-22.6826 -23.0137 -47.0791 -48.7031 -73.2012 -77.0752c-26.1162 -28.3721 -50.8613 -56.4248 -74.2295 -84.165c-53.6104 -64.9336 -87.8027 -121.358 -102.584 -169.273
c-14.7754 -47.9092 -22.166 -105.284 -22.166 -172.112v-8.51465h-275.273v88.8916c0 55.4746 13.7471 104.81 41.2402 147.998c27.4932 43.1826 53.002 98.8193 131.357 166.91c87.9775 76.9121 121.088 137.751 121.773 140.902h-376.853v-144.69h-243.312v303.566z" />
    <glyph glyph-name="eight" unicode="8" horiz-adv-x="1012" 
d="M947.179 511.284c0 -39.4902 -16.2207 -71.6895 -48.6758 -96.6035c-32.4609 -24.9082 -66.5752 -39.4912 -102.344 -43.749c44.3799 -6.68652 83.7979 -23.2412 118.237 -49.6709c34.4453 -26.4297 51.668 -60.6104 51.668 -102.53v-11.8525
c0 -18.2266 -2.4834 -35.2383 -7.4502 -51.0293c-4.9668 -15.7979 -16.3926 -33.7236 -34.2822 -53.7725c-17.8838 -20.0488 -41.8955 -37.2178 -72.0352 -51.4941s-73.0273 -26.2793 -128.67 -35.9971c-55.6426 -9.72363 -120.889 -14.583 -195.738 -14.583h-43.7178
c-292.778 0 -439.171 68.957 -439.171 206.876v11.8525c0 40.0977 17.3906 73.3643 52.1602 99.7939c34.7764 26.4297 74.3574 43.8984 118.737 52.4014c-39.082 6.07324 -74.3516 21.1133 -105.82 45.1133s-47.2002 55.7451 -47.2002 95.2354v9.11621
c0 10.9326 0.824219 20.9629 2.48438 30.0732s5.79785 20.2051 12.4189 33.2666c6.62695 13.0615 15.5693 24.7578 26.8262 35.0889c11.2637 10.3311 27.4883 20.9629 48.6855 31.8955s46.207 20.2051 75.0176 27.7939c28.8164 7.59473 65.084 13.668 108.802 18.2266
s92.7393 6.83789 147.053 6.83789h43.7178c74.8496 0 139.435 -4.55859 193.748 -13.6689c54.3193 -9.11035 95.5537 -19.8984 123.703 -32.3525c28.1494 -12.46 50.3389 -27.8008 66.5693 -46.0273s26.165 -34.0244 29.8096 -47.3926s5.4668 -27.9512 5.4668 -43.749
v-9.09863zM727.606 219.651l-0.00390625 2.72949c0 9.72363 -2.15918 17.9199 -6.45898 24.6064c-4.30566 6.68652 -13.4102 13.668 -27.3252 20.9619c-13.9092 7.28809 -36.7607 12.9111 -68.5596 16.8623c-31.793 3.95117 -71.8672 5.92383 -120.222 5.92383
c-49.0156 0 -89.4258 -1.97266 -121.219 -5.92383s-54.4814 -9.57422 -68.0596 -16.8623s-22.3574 -14.2754 -26.3262 -20.9619s-5.95898 -14.8828 -5.95898 -24.6064v-2.73633c0 -6.68066 1.16016 -12.9102 3.47559 -18.6826s7.78125 -11.9961 16.3926 -18.6768
c8.61133 -6.68652 20.5303 -12.459 35.7686 -17.3184c15.2383 -4.86523 37.0977 -8.81055 65.5771 -11.8477s61.9326 -4.55859 100.353 -4.55859c39.082 0 72.8594 1.67188 101.346 5.01562s50.3457 7.28906 65.584 11.8477
c15.2324 4.55859 27.1572 10.1748 35.7686 16.8613c8.61133 6.68066 14.0771 12.7539 16.3926 18.2266c2.31543 5.46582 3.47559 11.8457 3.47559 19.1396zM707.728 501.256l-0.00195312 2.73926c0 6.07324 -0.830078 11.5459 -2.4834 16.4053
c-1.66016 4.85938 -6.45898 10.4824 -14.4092 16.8564c-7.9502 6.37988 -18.7139 11.5459 -32.292 15.4971c-13.5781 3.94531 -33.4531 7.44531 -59.6182 10.4824s-57.4648 4.55859 -93.8945 4.55859c-36.4355 0 -67.7354 -1.52148 -93.9004 -4.55859
c-26.165 -3.04883 -46.04 -6.54297 -59.6182 -10.4814c-13.5781 -3.95117 -24.1797 -9.11719 -31.793 -15.4971s-12.2559 -11.8457 -13.9092 -16.4043s-2.4834 -10.1748 -2.4834 -16.8613v-2.73633c0 -6.68652 0.992188 -12.459 2.98242 -17.3174
c1.98438 -4.85938 6.78906 -10.4824 14.4082 -16.8564s18.3828 -11.6963 32.292 -15.9482s33.7842 -7.89648 59.6182 -10.9395c25.834 -3.03711 56.6348 -4.55859 92.4092 -4.55859c35.7686 0 66.7324 1.52148 92.8975 4.55859
c26.165 3.04297 46.208 6.6875 60.1113 10.9395c13.915 4.25195 24.8418 9.57422 32.792 15.9482c7.9502 6.37988 12.749 11.9961 14.4092 16.8555c1.65332 4.86523 2.4834 10.6377 2.4834 17.3184z" />
    <glyph glyph-name="nine" unicode="9" horiz-adv-x="1021" 
d="M494.635 0.71582c-62.8652 0 -119.276 4.55078 -169.236 13.6553s-90.3281 20.9395 -121.093 35.5039c-30.7705 14.5645 -56.25 31.4141 -76.4316 50.5312s-34.2412 37.9336 -42.1846 56.4492c-7.9375 18.5156 -11.9121 37.1758 -11.9121 55.9922v3.64453h239.216
c0.661133 -3.03711 2.31445 -6.375 4.95996 -10.0127c2.64551 -3.64453 8.26855 -8.64746 16.874 -15.0215s19.3574 -11.8398 32.2627 -16.3916s31.7637 -8.64648 56.5752 -12.291c24.8174 -3.64453 53.4355 -5.4668 85.8604 -5.4668
c40.3682 0 75.6074 4.09473 105.711 12.291c30.1094 8.19043 53.0986 18.0586 68.9805 29.5869c15.8818 11.5342 28.624 25.1904 38.2158 40.9697s15.7197 29.4355 18.3594 40.9697s3.96875 23.0684 3.96875 34.5967v2.73047
c-62.2031 -43.7002 -160.139 -65.5527 -293.807 -65.5527h-12.9053c-74.1104 0 -137.968 5.7666 -191.572 17.3008c-53.5986 11.5342 -94.791 27.6201 -123.577 48.252c-28.7861 20.6387 -49.4668 42.792 -62.041 66.4609
c-12.5742 23.6748 -18.8584 49.7734 -18.8584 78.3018v8.19629c0 23.0674 2.4834 44.1562 7.44434 63.2734s16.375 39.6055 34.2412 61.4521s41.8535 40.2119 71.9629 55.083s72.1318 27.3135 126.061 37.332s117.623 15.0215 191.071 15.0215h43.6758
c307.042 0 460.561 -113.505 460.561 -340.508v-21.8525c0 -34.5957 -3.6377 -66.918 -10.9199 -96.9609c-7.27637 -30.043 -21.1738 -60.3926 -41.6855 -91.043c-20.5176 -30.6504 -46.8203 -56.9053 -78.9141 -78.752
c-32.0938 -21.8525 -74.6094 -39.6045 -127.546 -53.2607s-114.147 -20.4814 -183.627 -20.4814h-39.6895zM714.994 471.42l0.000976562 2.73047c0 49.7734 -72.126 74.6572 -216.384 74.6572c-142.273 0 -213.407 -24.8838 -213.407 -74.6572v-2.73047
c0 -50.9824 71.1338 -76.4795 213.406 -76.4795c144.258 0 216.384 25.4971 216.384 76.4795z" />
    <glyph glyph-name="colon" unicode=":" horiz-adv-x="284" 
d="M245.314 513.712v-138.081h-207.314v138.081h207.314zM245.314 269.896v-138.081h-207.314v138.081h207.314z" />
    <glyph glyph-name="semicolon" unicode=";" horiz-adv-x="289" 
d="M247.32 513.712v-138.081h-207.32v138.081h207.32zM97.6328 54.4805c17.7822 31.5645 28.3896 57.3428 31.8291 77.332h-89.4629v138.082h207.32v-114.412c0 -14.7266 -4.16113 -31.6904 -12.4775 -50.8975c-8.31641 -19.2012 -17.6309 -35.9004 -27.9561 -50.1045
h-109.253z" />
    <glyph glyph-name="less" unicode="&#x3c;" horiz-adv-x="474" 
d="M433.871 185.466l-400.871 122.303v125.465l400.871 123.884v-119.938l-271.833 -67.0684l271.833 -65.4932v-119.151z" />
    <glyph glyph-name="equal" unicode="=" horiz-adv-x="500" 
d="M32 420.244h435.286v-100.996h-435.286v100.996zM32 264.008h435.286v-100.209h-435.286v100.209z" />
    <glyph glyph-name="greater" unicode="&#x3e;" horiz-adv-x="474" 
d="M40 185.466v119.15l271.833 65.4932l-271.833 67.0684v119.933l400.871 -123.884v-125.459z" />
    <glyph glyph-name="question" unicode="?" horiz-adv-x="756" 
d="M234.181 199.158l0.00585938 59.1826c0 29.9834 9.03223 53.1289 27.0967 69.4316c18.0645 16.3086 55.1973 31.0352 111.399 44.1865l72.2578 16.5674c32.1123 7.36035 53.4785 14.9912 64.0859 22.8809s15.9111 16.832 15.9111 26.8262
c0 8.41895 -2.00879 15.124 -6.02539 20.1211c-4.01074 4.99707 -17.3486 9.72949 -40.001 14.2031s-55.4863 6.70508 -98.4951 6.70508c-29.25 0 -54.4824 -1.97266 -75.7041 -5.91797c-21.2158 -3.94531 -36.8506 -8.1543 -46.8809 -12.6221
c-10.0361 -4.47363 -17.9258 -11.0459 -23.6562 -19.7295c-5.7373 -8.67773 -8.88867 -14.7275 -9.45996 -18.1494c-0.577148 -3.42188 -1.4375 -9.07422 -2.58008 -16.9639h-196.13v9.47168c0 13.1514 0.426758 24.3301 1.29297 33.5303
c0.860352 9.20703 3.58398 20.9092 8.17188 35.1133s11.04 26.3037 19.3564 36.2979s20.6445 20.5117 36.9893 31.5645c16.3447 11.0469 35.8467 20.1211 58.499 27.2227s51.6133 12.8867 86.8887 17.3545c35.2568 4.48047 74.9756 6.71777 119.133 6.71777h48.1738
c52.1846 0 97.9229 -3.28906 137.209 -9.86133s70.2559 -14.9912 92.9082 -25.25s40.8613 -22.8809 54.626 -37.8721s22.9414 -29.5918 27.5293 -43.7959s6.87891 -29.7188 6.87891 -46.5566v-5.52051c0 -38.9248 -12.9053 -71.4092 -38.7148 -97.4473
s-67.958 -45.9004 -126.451 -59.5752l-71.4043 -17.3545c-25.2324 -5.78516 -41.0059 -12.3643 -47.3145 -19.7305s-9.45996 -19.2012 -9.45996 -35.5098v-5.52051h-196.136zM438.922 147.079v-138.081h-207.314v138.081h207.314z" />
    <glyph glyph-name="at" unicode="@" horiz-adv-x="1180" 
d="M599.426 -39.3779c-88.3145 -0.0302734 -166.164 6.80859 -233.545 20.4834c-67.3867 13.6748 -121.153 31.4326 -161.293 53.2617c-40.1465 21.8291 -72.8359 48.7871 -98.0684 80.875s-42.2988 64.1758 -51.1865 96.2637s-13.332 67.333 -13.332 105.735v9.46484
c0 40.5068 5.15918 77.2012 15.4785 110.077s28.2451 64.4404 53.7666 94.6885s58.3555 55.499 98.4951 75.752s91.7598 36.4229 154.841 48.5225c63.0811 12.0986 135.916 18.1484 218.499 18.1484h11.1787c57.3506 0 110.113 -2.36914 158.287 -7.10156
s89.6123 -10.7822 124.304 -18.1484c34.6982 -7.36621 65.9561 -17.0957 93.7627 -29.1953c27.8125 -12.0996 50.7539 -23.9346 68.8184 -35.5107c18.0645 -11.5703 33.5488 -25.5098 46.4541 -41.8184s22.6533 -30.9033 29.25 -43.7959
c6.59668 -12.8867 11.7559 -28.2754 15.4844 -46.1592s6.02539 -32.4844 6.87891 -43.7959c0.860352 -11.3115 1.29297 -24.8535 1.29297 -40.6328v-8.67773c0 -23.1455 -2.72363 -45.6299 -8.17188 -67.4648s-14.9072 -43.5312 -28.3838 -65.0957
s-30.5371 -40.2422 -51.1875 -56.0215c-20.6445 -15.7852 -47.7471 -28.54 -81.29 -38.2695c-33.5488 -9.72949 -71.542 -14.5947 -113.985 -14.5947h-14.625c-75.7041 0 -124.449 20.2529 -146.242 60.7539c-44.1631 -40.5068 -106.667 -60.7539 -187.53 -60.7539h-12.9053
c-41.8662 0 -78.1396 6.18164 -108.82 18.5391c-30.6807 12.3633 -54.0488 28.5391 -70.1104 48.5283c-16.0557 19.9893 -27.0967 41.4277 -33.1162 64.3086s-7.3125 46.4238 -3.87305 70.6221l6.01953 39.4541c5.16602 43.1348 25.0947 79.9551 59.7861 110.468
c34.6982 30.5127 83.877 45.7686 147.536 45.7686h12.9053c87.1719 0 156.856 -21.3057 209.041 -63.917l7.73926 54.4463h189.25l-38.709 -280.901c-1.11816 -8.94238 0.740234 -16.3086 5.59277 -22.0938c4.87695 -5.78516 13.0488 -8.67773 24.5166 -8.67773
c33.2607 0 60.79 15.124 82.583 45.3721s32.6836 71.4102 32.6836 123.487v2.36914c0 19.46 -0.426758 34.8486 -1.28711 46.1602s-4.16211 25.9062 -9.89258 43.79s-13.7646 32.3525 -24.084 43.3994c-10.3252 11.0469 -25.8096 23.0137 -46.4541 35.9004
s-45.7393 23.0137 -75.2715 30.3799s-66.8096 13.5479 -111.832 18.5449c-45.0166 4.99707 -96.4922 7.49902 -154.414 7.49902h-11.1787c-66.5273 0 -124.305 -4.47363 -173.339 -13.416s-88.6025 -20.9092 -118.712 -35.9004s-54.3379 -34.0596 -72.6914 -57.2051
s-30.8252 -47.3438 -37.4219 -72.5879c-6.59668 -25.251 -9.8916 -54.1816 -9.8916 -86.7988v-9.46484c0 -37.873 6.02539 -71.8066 18.0645 -101.79c12.0449 -29.9834 32.9775 -58.2588 62.7988 -84.8203c29.8213 -26.5674 73.9785 -47.2119 132.478 -61.9385
s130.186 -22.0928 215.065 -22.0928c186.959 0 326.893 21.3057 419.795 63.917l32.6836 -85.2168c-90.04 -42.082 -240.87 -63.123 -452.484 -63.123zM696.641 310.145l1.71973 14.9854c2.86816 24.7275 -6.16406 44.8486 -27.0967 60.3633
s-52.0459 23.2783 -93.334 23.2783c-68.2471 0 -104.947 -25.5088 -110.113 -76.5332l-1.71973 -14.2041c-4.01074 -23.6689 2.29102 -44.9746 18.9238 -63.9111s44.4453 -28.4082 83.4424 -28.4082c76.8467 0 119.572 28.1436 128.178 84.4297z" />
    <glyph glyph-name="A" unicode="A" horiz-adv-x="1261" 
d="M1004.97 0.585938l-71.9443 128.207h-622.582l-68.8604 -128.207h-243.582l386.444 701.383h469.442l409.055 -701.383h-257.973zM702.09 540.494l-169.82 -0.15625l-136.518 -253.168h448.882z" />
    <glyph glyph-name="A" unicode="&#xc5;" horiz-adv-x="1261" 
d="M1004.97 0.585938l-71.9443 128.207h-622.582l-68.8604 -128.207h-243.582l386.444 701.383h469.442l409.055 -701.383h-257.973zM702.09 540.494l-169.82 -0.15625l-136.518 -253.168h448.882z" />
    <glyph glyph-name="A" unicode="&#xc4;" horiz-adv-x="1261" 
d="M1004.97 0.585938l-71.9443 128.207h-622.582l-68.8604 -128.207h-243.582l386.444 701.383h469.442l409.055 -701.383h-257.973zM702.09 540.494l-169.82 -0.15625l-136.518 -253.168h448.882z" />
    <glyph glyph-name="A" unicode="&#xc3;" horiz-adv-x="1261" 
d="M1004.97 0.585938l-71.9443 128.207h-622.582l-68.8604 -128.207h-243.582l386.444 701.383h469.442l409.055 -701.383h-257.973zM702.09 540.494l-169.82 -0.15625l-136.518 -253.168h448.882z" />
    <glyph glyph-name="A" unicode="&#xc2;" horiz-adv-x="1261" 
d="M1004.97 0.585938l-71.9443 128.207h-622.582l-68.8604 -128.207h-243.582l386.444 701.383h469.442l409.055 -701.383h-257.973zM702.09 540.494l-169.82 -0.15625l-136.518 -253.168h448.882z" />
    <glyph glyph-name="A" unicode="&#xc1;" horiz-adv-x="1261" 
d="M1004.97 0.585938l-71.9443 128.207h-622.582l-68.8604 -128.207h-243.582l386.444 701.383h469.442l409.055 -701.383h-257.973zM702.09 540.494l-169.82 -0.15625l-136.518 -253.168h448.882z" />
    <glyph glyph-name="A" unicode="&#xc0;" horiz-adv-x="1261" 
d="M1004.97 0.585938l-71.9443 128.207h-622.582l-68.8604 -128.207h-243.582l386.444 701.383h469.442l409.055 -701.383h-257.973zM702.09 540.494l-169.82 -0.15625l-136.518 -253.168h448.882z" />
    <glyph glyph-name="B" unicode="B" horiz-adv-x="1069" 
d="M60 0.585938l0.00195312 701.381h654.693c101.405 0 173.351 -14.9258 215.836 -44.7822c42.4795 -29.8506 63.7188 -68.3428 63.7188 -115.477v-13.1992c0 -21.3662 -4.28125 -40.6934 -12.8447 -57.9766s-20.043 -31.1143 -34.4336 -41.4814
s-27.4102 -18.3828 -39.0586 -24.041s-23.2969 -10.0537 -34.9453 -13.1992c16.4473 -3.77051 32.5449 -9.11035 48.3066 -16.0254s33.2305 -16.8135 52.4131 -29.6943s34.6016 -30.6387 46.25 -53.2617s17.4697 -48.3906 17.4697 -77.3037v-13.1992
c0 -134.491 -105.519 -201.74 -316.556 -201.74h-660.852zM299.477 553.957v-114.07h374.11c55.498 0 83.25 18.8584 83.25 56.5625v1.88867c0 37.0791 -27.752 55.6191 -83.25 55.6191h-374.11zM694.142 290.945h-394.666v-137.643h394.665
c35.6299 0 60.2969 6.91504 74.002 20.7402s20.5547 29.8516 20.5547 48.0781v3.77051c0 43.3633 -31.5166 65.0537 -94.5557 65.0537z" />
    <glyph glyph-name="C" unicode="C" horiz-adv-x="1127" 
d="M541.838 -11.6816c-60.9824 0 -116.825 4.41016 -167.531 13.208s-93.3594 20.2656 -127.961 34.4092s-65.2646 31.4268 -91.9883 51.8545c-26.7236 20.4219 -47.6201 41.0059 -62.6963 61.7461s-27.5781 43.0498 -37.5127 66.9297
c-9.93457 23.8857 -16.4473 45.5645 -19.5264 65.0479c-3.08496 19.4834 -4.62402 38.9668 -4.62402 58.4502v27.3369c0 30.1699 3.08496 58.7637 9.24902 85.7881s20.043 57.1943 41.625 90.5029s49.8457 61.9023 84.79 85.7881s84.79 43.9951 149.543 60.334
s140.294 24.5049 226.63 24.5049h42.1367c84.2793 0 158.618 -7.07227 223.028 -21.21s114.256 -31.4268 149.543 -51.8486c35.2871 -20.4277 64.0674 -43.9941 86.335 -70.7061s36.6582 -50.5918 43.165 -71.6514c6.50684 -21.0527 9.7666 -41.3184 9.7666 -60.8018
v-10.373h-253.859c-2.05664 7.54102 -4.62402 14.2998 -7.70898 20.2715s-10.9629 15.5508 -23.6396 28.75c-12.6768 13.1934 -28.0957 24.1982 -46.25 32.9902c-18.1543 8.79785 -44.8779 16.8135 -80.165 24.042s-75.8838 10.8428 -121.791 10.8428
c-54.8125 0 -101.579 -5.18945 -140.288 -15.5566s-67.832 -24.667 -87.3643 -42.8936c-19.5254 -18.2266 -33.4043 -37.3975 -41.625 -57.5068c-8.2207 -20.1152 -12.334 -42.1064 -12.334 -65.9922v-11.3115c0 -22.6289 4.62402 -44.4697 13.873 -65.5225
s23.8076 -41.4746 43.6826 -61.2773c19.8682 -19.7959 49.334 -35.665 88.3857 -47.6016s84.9648 -17.9141 137.721 -17.9141c156.903 0 249.409 40.5371 277.498 121.611c0.685547 1.25684 1.02832 2.20117 1.02832 2.82617h253.859v-10.3672
c0 -20.7402 -3.5957 -42.1064 -10.7939 -64.1094c-7.19238 -21.9971 -22.0996 -46.6641 -44.71 -74.001s-51.7334 -51.3789 -87.3633 -72.1191s-85.4756 -38.3359 -149.543 -52.792c-64.0674 -14.4502 -137.552 -21.6787 -220.46 -21.6787h-42.124z" />
    <glyph glyph-name="C" unicode="&#xc7;" horiz-adv-x="1127" 
d="M541.838 -11.6816c-60.9824 0 -116.825 4.41016 -167.531 13.208s-93.3594 20.2656 -127.961 34.4092s-65.2646 31.4268 -91.9883 51.8545c-26.7236 20.4219 -47.6201 41.0059 -62.6963 61.7461s-27.5781 43.0498 -37.5127 66.9297
c-9.93457 23.8857 -16.4473 45.5645 -19.5264 65.0479c-3.08496 19.4834 -4.62402 38.9668 -4.62402 58.4502v27.3369c0 30.1699 3.08496 58.7637 9.24902 85.7881s20.043 57.1943 41.625 90.5029s49.8457 61.9023 84.79 85.7881s84.79 43.9951 149.543 60.334
s140.294 24.5049 226.63 24.5049h42.1367c84.2793 0 158.618 -7.07227 223.028 -21.21s114.256 -31.4268 149.543 -51.8486c35.2871 -20.4277 64.0674 -43.9941 86.335 -70.7061s36.6582 -50.5918 43.165 -71.6514c6.50684 -21.0527 9.7666 -41.3184 9.7666 -60.8018
v-10.373h-253.859c-2.05664 7.54102 -4.62402 14.2998 -7.70898 20.2715s-10.9629 15.5508 -23.6396 28.75c-12.6768 13.1934 -28.0957 24.1982 -46.25 32.9902c-18.1543 8.79785 -44.8779 16.8135 -80.165 24.042s-75.8838 10.8428 -121.791 10.8428
c-54.8125 0 -101.579 -5.18945 -140.288 -15.5566s-67.832 -24.667 -87.3643 -42.8936c-19.5254 -18.2266 -33.4043 -37.3975 -41.625 -57.5068c-8.2207 -20.1152 -12.334 -42.1064 -12.334 -65.9922v-11.3115c0 -22.6289 4.62402 -44.4697 13.873 -65.5225
s23.8076 -41.4746 43.6826 -61.2773c19.8682 -19.7959 49.334 -35.665 88.3857 -47.6016s84.9648 -17.9141 137.721 -17.9141c156.903 0 249.409 40.5371 277.498 121.611c0.685547 1.25684 1.02832 2.20117 1.02832 2.82617h253.859v-10.3672
c0 -20.7402 -3.5957 -42.1064 -10.7939 -64.1094c-7.19238 -21.9971 -22.0996 -46.6641 -44.71 -74.001s-51.7334 -51.3789 -87.3633 -72.1191s-85.4756 -38.3359 -149.543 -52.792c-64.0674 -14.4502 -137.552 -21.6787 -220.46 -21.6787h-42.124z" />
    <glyph glyph-name="D" unicode="D" horiz-adv-x="1136" 
d="M60.0117 701.968l506.685 0.000976562c71.2598 0 135.664 -4.40234 193.219 -13.2002s105.519 -21.5225 143.891 -38.1797s71.2598 -35.1904 98.6689 -55.6182c27.4092 -20.4219 48.3057 -43.5254 62.6963 -69.2871c14.3906 -25.7676 24.8359 -51.0664 31.3486 -75.8896
c6.5127 -24.8301 9.76562 -51.3799 9.76562 -79.6611v-28.2812c0 -33.3086 -4.11328 -64.5791 -12.334 -93.7988c-8.2207 -29.2256 -24.4932 -59.5459 -48.8174 -90.9727s-55.6729 -58.1387 -94.0391 -80.1299c-38.3721 -21.9971 -90.4424 -40.2236 -156.224 -54.6797
c-65.7754 -14.4502 -141.491 -21.6787 -227.142 -21.6787h-507.718v701.376zM299.469 536.045v-366.714h248.724c204.867 0 307.307 60.333 307.307 180.999v5.65918c0 120.035 -102.434 180.056 -307.307 180.056h-248.724z" />
    <glyph glyph-name="E" unicode="E" horiz-adv-x="922" 
d="M60 701.968h805.777v-159.321h-569.387v-103.696h556.024v-160.266h-556.024v-115.014h579.663v-163.092h-816.054v701.389z" />
    <glyph glyph-name="E" unicode="&#xcb;" horiz-adv-x="922" 
d="M60 701.968h805.777v-159.321h-569.387v-103.696h556.024v-160.266h-556.024v-115.014h579.663v-163.092h-816.054v701.389z" />
    <glyph glyph-name="E" unicode="&#xca;" horiz-adv-x="922" 
d="M60 701.968h805.777v-159.321h-569.387v-103.696h556.024v-160.266h-556.024v-115.014h579.663v-163.092h-816.054v701.389z" />
    <glyph glyph-name="E" unicode="&#xc9;" horiz-adv-x="922" 
d="M60 701.968h805.777v-159.321h-569.387v-103.696h556.024v-160.266h-556.024v-115.014h579.663v-163.092h-816.054v701.389z" />
    <glyph glyph-name="E" unicode="&#xc8;" horiz-adv-x="922" 
d="M60 701.968h805.777v-159.321h-569.387v-103.696h556.024v-160.266h-556.024v-115.014h579.663v-163.092h-816.054v701.389z" />
    <glyph glyph-name="F" unicode="F" horiz-adv-x="876" 
d="M59 698.732l786.684 -0.000976562v-158.581h-549.35v-103.209h536.048v-159.52h-536.048v-276.807h-237.334v698.117z" />
    <glyph glyph-name="G" unicode="G" horiz-adv-x="1146" 
d="M557.897 -11.5859l-21.4951 0.000976562c-79.1133 0 -149.356 7.81738 -210.736 23.458c-61.3799 15.6348 -110.312 35.4971 -146.802 59.5811s-66.3232 52.2334 -89.5107 84.4473c-23.1875 32.2207 -39.0449 63.1846 -47.5723 92.8975
s-12.7852 59.9004 -12.7852 90.5508v26.2725c0 30.6562 3.57812 60.2061 10.7402 88.6738c7.16211 28.4619 22.166 58.7998 45.0117 91.0205c22.8447 32.2139 52.3408 60.0566 88.4883 83.5088c36.1475 23.459 86.1016 43.0088 149.868 58.6494
c63.7666 15.6348 137.594 23.458 221.476 23.458h43.9883c81.1582 0 152.767 -6.25391 214.832 -18.7617c62.0596 -12.5137 110.654 -27.9922 145.779 -46.4473s63.9355 -40.3506 86.4443 -65.6855s37.5127 -48.4805 45.0117 -69.4375
c7.50488 -20.957 11.5938 -42.3828 12.2793 -64.2783v-0.938477h-253.703c-25.2324 66.3105 -115.597 99.4629 -271.094 99.4629c-193.003 0 -289.507 -62.8652 -289.507 -188.607v-10.3193c0 -51.2949 23.6992 -95.3975 71.0977 -132.302
c47.3984 -36.9111 119.519 -55.3604 216.365 -55.3604c42.2812 0 81.1582 2.81445 116.62 8.44922c35.4678 5.62891 63.7676 12.5088 84.9111 20.6387c21.1436 8.13672 39.0459 17.0488 53.707 26.7422c14.6611 9.7002 24.8965 18.2998 30.6934 25.8047
s8.69531 13.4521 8.69531 17.8301v1.87598h-298.714v132.303h536.048v-391.285h-171.606s-1.20898 62.5703 -2.29785 108.844c-76.3828 -80.6953 -198.463 -121.046 -366.233 -121.046z" />
    <glyph glyph-name="H" unicode="H" horiz-adv-x="1107" 
d="M59 0.615234v698.117h238.356v-254.286h511.501v254.286h238.356v-698.123h-238.356v274.937h-511.501v-274.931h-238.356z" />
    <glyph glyph-name="I" unicode="I" horiz-adv-x="357" 
d="M297.356 698.732v-698.123h-238.356v698.123h238.356z" />
    <glyph glyph-name="I" unicode="&#xcf;" horiz-adv-x="357" 
d="M297.356 698.732v-698.123h-238.356v698.123h238.356z" />
    <glyph glyph-name="I" unicode="&#xce;" horiz-adv-x="357" 
d="M297.356 698.732v-698.123h-238.356v698.123h238.356z" />
    <glyph glyph-name="I" unicode="&#xcd;" horiz-adv-x="357" 
d="M297.356 698.732v-698.123h-238.356v698.123h238.356z" />
    <glyph glyph-name="I" unicode="&#xcc;" horiz-adv-x="357" 
d="M297.356 698.732v-698.123h-238.356v698.123h238.356z" />
    <glyph glyph-name="J" unicode="J" horiz-adv-x="919" 
d="M473.366 -9.70996h-57.2852c-60.7002 0 -115.086 6.25391 -163.17 18.7676c-48.0781 12.5078 -86.9551 28.9307 -116.619 49.2627s-54.0488 43.9473 -73.1416 70.8457s-32.3945 53.7969 -39.8994 80.6953s-11.251 54.4277 -11.251 82.5713v5.62891h241.43
c0.679688 -9.38086 2.04492 -18.1426 4.08984 -26.2725c2.04492 -8.13672 6.98828 -19.3936 14.8359 -33.7842c7.8418 -14.3838 17.7344 -26.585 29.665 -36.5918c11.9365 -10.0127 29.6641 -18.7686 53.1943 -26.2734s50.9814 -11.2568 82.3477 -11.2568h12.2734
c61.3799 0 107.245 15.1719 137.595 45.5098s45.5215 72.7207 45.5215 127.143v362.198h239.379v-367.826c0 -31.2764 -3.24121 -61.6201 -9.71777 -91.0205c-6.48242 -29.4004 -18.9238 -59.7383 -37.3369 -91.0146s-41.9434 -58.1807 -70.5859 -80.7012
s-67.1768 -41.126 -115.598 -55.8291s-103.667 -22.0518 -165.727 -22.0518z" />
    <glyph glyph-name="K" unicode="K" horiz-adv-x="1015" 
d="M298.909 -0.334961h-238.909v699.729h238.903v-291.552l390.66 291.552h303.5l-438.846 -319.767l459.357 -379.962h-311.703l-402.963 330.11v-330.11z" />
    <glyph glyph-name="L" unicode="L" horiz-adv-x="842" 
d="M60 699.395h238.903v-525.734h530.106v-173.994h-769.01v699.729z" />
    <glyph glyph-name="M" unicode="M" horiz-adv-x="1315" 
d="M60 -0.334961l0.000976562 699.729h339.389l263.517 -435.448l264.539 435.448h327.085v-699.729h-235.831v484.355l-300.428 -484.355h-128.165l-300.428 484.355v-484.355h-229.679z" />
    <glyph glyph-name="N" unicode="N" horiz-adv-x="1110" 
d="M60 699.395h266.596l487.038 -440.15v440.15h235.831v-699.729h-235.831l-517.803 463.663v-463.663h-235.831v699.729z" />
    <glyph glyph-name="N" unicode="&#xd1;" horiz-adv-x="1110" 
d="M60 699.395h266.596l487.038 -440.15v440.15h235.831v-699.729h-235.831l-517.803 463.663v-463.663h-235.831v699.729z" />
    <glyph glyph-name="O" unicode="O" horiz-adv-x="1166" 
d="M567.28 711.619l32.4238 0.000976562c66.3105 0 126.464 -4.2334 180.465 -12.6943c54.001 -8.4668 99.2881 -19.5918 135.856 -33.3867c36.5742 -13.7949 68.5303 -30.7227 95.874 -50.79s48.7041 -40.1279 64.0869 -60.1885
c15.3828 -20.0674 27.8545 -42.0107 37.4219 -65.8359c9.57324 -23.8252 15.7246 -45.1426 18.4551 -63.9531c2.73633 -18.8105 4.10156 -38.5645 4.10156 -59.251v-28.2148c0 -20.0605 -1.36523 -39.502 -4.10156 -58.3057
c-2.73633 -18.8105 -8.8877 -40.2852 -18.4551 -64.4229s-21.8711 -46.3994 -36.9111 -66.7793c-15.04 -20.374 -36.4004 -40.7539 -64.0869 -61.1279c-27.6865 -20.3799 -59.6426 -37.6201 -95.874 -51.7275s-81.5127 -25.5508 -135.856 -34.3242
c-54.3438 -8.7793 -114.665 -13.1689 -180.976 -13.1689h-32.4248c-66.3047 0 -126.801 4.38965 -181.487 13.1689c-54.6865 8.77344 -100.143 20.2168 -136.374 34.3242s-68.1875 31.3477 -95.8672 51.7275c-27.6865 20.374 -49.2148 40.7539 -64.5977 61.1279
c-15.3828 20.3799 -27.6865 42.6357 -36.9111 66.7803c-9.22461 24.1377 -15.208 45.6123 -17.9443 64.4229s-4.10156 38.2461 -4.10156 58.3066v28.2148c0 20.6924 1.36523 40.2842 4.10156 58.7812s8.71387 39.8145 17.9443 63.9521s21.5342 46.2373 36.9111 66.3047
c15.3828 20.0605 36.7432 40.1279 64.0869 60.1885s59.2998 36.9883 95.8682 50.7891c36.5742 13.7949 82.1982 24.9199 136.885 33.3867c54.6865 8.46094 115.183 12.6943 181.487 12.6943zM885.777 345.766l0.00292969 13.1719
c0 17.5537 -2.39355 34.1689 -7.18066 49.8457c-4.78711 15.6709 -14.0117 31.9736 -27.6865 48.9014c-13.6748 16.9336 -31.4443 31.3477 -53.3154 43.2607c-21.877 11.9131 -51.6074 21.793 -89.2041 29.6289c-30.915 6.44629 -65.998 10.2412 -105.236 11.3838
c-8.47266 0.246094 -26.3447 0.318359 -32.2139 0.209961c-193.839 -3.48828 -290.758 -64.5674 -290.758 -183.237v-11.2871c0 -22.5742 4.26953 -43.8857 12.8145 -63.9531s23.0674 -40.1279 43.5791 -60.1885c20.5059 -20.0674 52.293 -36.0508 95.3555 -47.9639
c39.7607 -10.999 87.3818 -16.9219 142.874 -17.7637c4.6123 -0.0722656 17.1865 -0.0185547 24.4092 0.15625c51.3848 1.25098 95.8125 6.96387 133.271 17.1387c42.7256 11.5938 74.6816 27.2705 95.873 47.0244c21.1914 19.748 36.0566 39.6582 44.6016 59.7188
c8.54492 20.0674 12.8145 41.3848 12.8145 63.9531z" />
    <glyph glyph-name="O" unicode="&#xd8;" horiz-adv-x="1166" 
d="M567.28 711.619l32.4238 0.000976562c66.3105 0 126.464 -4.2334 180.465 -12.6943c54.001 -8.4668 99.2881 -19.5918 135.856 -33.3867c36.5742 -13.7949 68.5303 -30.7227 95.874 -50.79s48.7041 -40.1279 64.0869 -60.1885
c15.3828 -20.0674 27.8545 -42.0107 37.4219 -65.8359c9.57324 -23.8252 15.7246 -45.1426 18.4551 -63.9531c2.73633 -18.8105 4.10156 -38.5645 4.10156 -59.251v-28.2148c0 -20.0605 -1.36523 -39.502 -4.10156 -58.3057
c-2.73633 -18.8105 -8.8877 -40.2852 -18.4551 -64.4229s-21.8711 -46.3994 -36.9111 -66.7793c-15.04 -20.374 -36.4004 -40.7539 -64.0869 -61.1279c-27.6865 -20.3799 -59.6426 -37.6201 -95.874 -51.7275s-81.5127 -25.5508 -135.856 -34.3242
c-54.3438 -8.7793 -114.665 -13.1689 -180.976 -13.1689h-32.4248c-66.3047 0 -126.801 4.38965 -181.487 13.1689c-54.6865 8.77344 -100.143 20.2168 -136.374 34.3242s-68.1875 31.3477 -95.8672 51.7275c-27.6865 20.374 -49.2148 40.7539 -64.5977 61.1279
c-15.3828 20.3799 -27.6865 42.6357 -36.9111 66.7803c-9.22461 24.1377 -15.208 45.6123 -17.9443 64.4229s-4.10156 38.2461 -4.10156 58.3066v28.2148c0 20.6924 1.36523 40.2842 4.10156 58.7812s8.71387 39.8145 17.9443 63.9521s21.5342 46.2373 36.9111 66.3047
c15.3828 20.0605 36.7432 40.1279 64.0869 60.1885s59.2998 36.9883 95.8682 50.7891c36.5742 13.7949 82.1982 24.9199 136.885 33.3867c54.6865 8.46094 115.183 12.6943 181.487 12.6943zM885.777 345.766l0.00292969 13.1719
c0 17.5537 -2.39355 34.1689 -7.18066 49.8457c-4.78711 15.6709 -14.0117 31.9736 -27.6865 48.9014c-13.6748 16.9336 -31.4443 31.3477 -53.3154 43.2607c-21.877 11.9131 -51.6074 21.793 -89.2041 29.6289c-30.915 6.44629 -65.998 10.2412 -105.236 11.3838
c-8.47266 0.246094 -26.3447 0.318359 -32.2139 0.209961c-193.839 -3.48828 -290.758 -64.5674 -290.758 -183.237v-11.2871c0 -22.5742 4.26953 -43.8857 12.8145 -63.9531s23.0674 -40.1279 43.5791 -60.1885c20.5059 -20.0674 52.293 -36.0508 95.3555 -47.9639
c39.7607 -10.999 87.3818 -16.9219 142.874 -17.7637c4.6123 -0.0722656 17.1865 -0.0185547 24.4092 0.15625c51.3848 1.25098 95.8125 6.96387 133.271 17.1387c42.7256 11.5938 74.6816 27.2705 95.873 47.0244c21.1914 19.748 36.0566 39.6582 44.6016 59.7188
c8.54492 20.0674 12.8145 41.3848 12.8145 63.9531z" />
    <glyph glyph-name="O" unicode="&#xd6;" horiz-adv-x="1166" 
d="M567.28 711.619l32.4238 0.000976562c66.3105 0 126.464 -4.2334 180.465 -12.6943c54.001 -8.4668 99.2881 -19.5918 135.856 -33.3867c36.5742 -13.7949 68.5303 -30.7227 95.874 -50.79s48.7041 -40.1279 64.0869 -60.1885
c15.3828 -20.0674 27.8545 -42.0107 37.4219 -65.8359c9.57324 -23.8252 15.7246 -45.1426 18.4551 -63.9531c2.73633 -18.8105 4.10156 -38.5645 4.10156 -59.251v-28.2148c0 -20.0605 -1.36523 -39.502 -4.10156 -58.3057
c-2.73633 -18.8105 -8.8877 -40.2852 -18.4551 -64.4229s-21.8711 -46.3994 -36.9111 -66.7793c-15.04 -20.374 -36.4004 -40.7539 -64.0869 -61.1279c-27.6865 -20.3799 -59.6426 -37.6201 -95.874 -51.7275s-81.5127 -25.5508 -135.856 -34.3242
c-54.3438 -8.7793 -114.665 -13.1689 -180.976 -13.1689h-32.4248c-66.3047 0 -126.801 4.38965 -181.487 13.1689c-54.6865 8.77344 -100.143 20.2168 -136.374 34.3242s-68.1875 31.3477 -95.8672 51.7275c-27.6865 20.374 -49.2148 40.7539 -64.5977 61.1279
c-15.3828 20.3799 -27.6865 42.6357 -36.9111 66.7803c-9.22461 24.1377 -15.208 45.6123 -17.9443 64.4229s-4.10156 38.2461 -4.10156 58.3066v28.2148c0 20.6924 1.36523 40.2842 4.10156 58.7812s8.71387 39.8145 17.9443 63.9521s21.5342 46.2373 36.9111 66.3047
c15.3828 20.0605 36.7432 40.1279 64.0869 60.1885s59.2998 36.9883 95.8682 50.7891c36.5742 13.7949 82.1982 24.9199 136.885 33.3867c54.6865 8.46094 115.183 12.6943 181.487 12.6943zM885.777 345.766l0.00292969 13.1719
c0 17.5537 -2.39355 34.1689 -7.18066 49.8457c-4.78711 15.6709 -14.0117 31.9736 -27.6865 48.9014c-13.6748 16.9336 -31.4443 31.3477 -53.3154 43.2607c-21.877 11.9131 -51.6074 21.793 -89.2041 29.6289c-30.915 6.44629 -65.998 10.2412 -105.236 11.3838
c-8.47266 0.246094 -26.3447 0.318359 -32.2139 0.209961c-193.839 -3.48828 -290.758 -64.5674 -290.758 -183.237v-11.2871c0 -22.5742 4.26953 -43.8857 12.8145 -63.9531s23.0674 -40.1279 43.5791 -60.1885c20.5059 -20.0674 52.293 -36.0508 95.3555 -47.9639
c39.7607 -10.999 87.3818 -16.9219 142.874 -17.7637c4.6123 -0.0722656 17.1865 -0.0185547 24.4092 0.15625c51.3848 1.25098 95.8125 6.96387 133.271 17.1387c42.7256 11.5938 74.6816 27.2705 95.873 47.0244c21.1914 19.748 36.0566 39.6582 44.6016 59.7188
c8.54492 20.0674 12.8145 41.3848 12.8145 63.9531z" />
    <glyph glyph-name="O" unicode="&#xd5;" horiz-adv-x="1166" 
d="M567.28 711.619l32.4238 0.000976562c66.3105 0 126.464 -4.2334 180.465 -12.6943c54.001 -8.4668 99.2881 -19.5918 135.856 -33.3867c36.5742 -13.7949 68.5303 -30.7227 95.874 -50.79s48.7041 -40.1279 64.0869 -60.1885
c15.3828 -20.0674 27.8545 -42.0107 37.4219 -65.8359c9.57324 -23.8252 15.7246 -45.1426 18.4551 -63.9531c2.73633 -18.8105 4.10156 -38.5645 4.10156 -59.251v-28.2148c0 -20.0605 -1.36523 -39.502 -4.10156 -58.3057
c-2.73633 -18.8105 -8.8877 -40.2852 -18.4551 -64.4229s-21.8711 -46.3994 -36.9111 -66.7793c-15.04 -20.374 -36.4004 -40.7539 -64.0869 -61.1279c-27.6865 -20.3799 -59.6426 -37.6201 -95.874 -51.7275s-81.5127 -25.5508 -135.856 -34.3242
c-54.3438 -8.7793 -114.665 -13.1689 -180.976 -13.1689h-32.4248c-66.3047 0 -126.801 4.38965 -181.487 13.1689c-54.6865 8.77344 -100.143 20.2168 -136.374 34.3242s-68.1875 31.3477 -95.8672 51.7275c-27.6865 20.374 -49.2148 40.7539 -64.5977 61.1279
c-15.3828 20.3799 -27.6865 42.6357 -36.9111 66.7803c-9.22461 24.1377 -15.208 45.6123 -17.9443 64.4229s-4.10156 38.2461 -4.10156 58.3066v28.2148c0 20.6924 1.36523 40.2842 4.10156 58.7812s8.71387 39.8145 17.9443 63.9521s21.5342 46.2373 36.9111 66.3047
c15.3828 20.0605 36.7432 40.1279 64.0869 60.1885s59.2998 36.9883 95.8682 50.7891c36.5742 13.7949 82.1982 24.9199 136.885 33.3867c54.6865 8.46094 115.183 12.6943 181.487 12.6943zM885.777 345.766l0.00292969 13.1719
c0 17.5537 -2.39355 34.1689 -7.18066 49.8457c-4.78711 15.6709 -14.0117 31.9736 -27.6865 48.9014c-13.6748 16.9336 -31.4443 31.3477 -53.3154 43.2607c-21.877 11.9131 -51.6074 21.793 -89.2041 29.6289c-30.915 6.44629 -65.998 10.2412 -105.236 11.3838
c-8.47266 0.246094 -26.3447 0.318359 -32.2139 0.209961c-193.839 -3.48828 -290.758 -64.5674 -290.758 -183.237v-11.2871c0 -22.5742 4.26953 -43.8857 12.8145 -63.9531s23.0674 -40.1279 43.5791 -60.1885c20.5059 -20.0674 52.293 -36.0508 95.3555 -47.9639
c39.7607 -10.999 87.3818 -16.9219 142.874 -17.7637c4.6123 -0.0722656 17.1865 -0.0185547 24.4092 0.15625c51.3848 1.25098 95.8125 6.96387 133.271 17.1387c42.7256 11.5938 74.6816 27.2705 95.873 47.0244c21.1914 19.748 36.0566 39.6582 44.6016 59.7188
c8.54492 20.0674 12.8145 41.3848 12.8145 63.9531z" />
    <glyph glyph-name="O" unicode="&#xd4;" horiz-adv-x="1166" 
d="M567.28 711.619l32.4238 0.000976562c66.3105 0 126.464 -4.2334 180.465 -12.6943c54.001 -8.4668 99.2881 -19.5918 135.856 -33.3867c36.5742 -13.7949 68.5303 -30.7227 95.874 -50.79s48.7041 -40.1279 64.0869 -60.1885
c15.3828 -20.0674 27.8545 -42.0107 37.4219 -65.8359c9.57324 -23.8252 15.7246 -45.1426 18.4551 -63.9531c2.73633 -18.8105 4.10156 -38.5645 4.10156 -59.251v-28.2148c0 -20.0605 -1.36523 -39.502 -4.10156 -58.3057
c-2.73633 -18.8105 -8.8877 -40.2852 -18.4551 -64.4229s-21.8711 -46.3994 -36.9111 -66.7793c-15.04 -20.374 -36.4004 -40.7539 -64.0869 -61.1279c-27.6865 -20.3799 -59.6426 -37.6201 -95.874 -51.7275s-81.5127 -25.5508 -135.856 -34.3242
c-54.3438 -8.7793 -114.665 -13.1689 -180.976 -13.1689h-32.4248c-66.3047 0 -126.801 4.38965 -181.487 13.1689c-54.6865 8.77344 -100.143 20.2168 -136.374 34.3242s-68.1875 31.3477 -95.8672 51.7275c-27.6865 20.374 -49.2148 40.7539 -64.5977 61.1279
c-15.3828 20.3799 -27.6865 42.6357 -36.9111 66.7803c-9.22461 24.1377 -15.208 45.6123 -17.9443 64.4229s-4.10156 38.2461 -4.10156 58.3066v28.2148c0 20.6924 1.36523 40.2842 4.10156 58.7812s8.71387 39.8145 17.9443 63.9521s21.5342 46.2373 36.9111 66.3047
c15.3828 20.0605 36.7432 40.1279 64.0869 60.1885s59.2998 36.9883 95.8682 50.7891c36.5742 13.7949 82.1982 24.9199 136.885 33.3867c54.6865 8.46094 115.183 12.6943 181.487 12.6943zM885.777 345.766l0.00292969 13.1719
c0 17.5537 -2.39355 34.1689 -7.18066 49.8457c-4.78711 15.6709 -14.0117 31.9736 -27.6865 48.9014c-13.6748 16.9336 -31.4443 31.3477 -53.3154 43.2607c-21.877 11.9131 -51.6074 21.793 -89.2041 29.6289c-30.915 6.44629 -65.998 10.2412 -105.236 11.3838
c-8.47266 0.246094 -26.3447 0.318359 -32.2139 0.209961c-193.839 -3.48828 -290.758 -64.5674 -290.758 -183.237v-11.2871c0 -22.5742 4.26953 -43.8857 12.8145 -63.9531s23.0674 -40.1279 43.5791 -60.1885c20.5059 -20.0674 52.293 -36.0508 95.3555 -47.9639
c39.7607 -10.999 87.3818 -16.9219 142.874 -17.7637c4.6123 -0.0722656 17.1865 -0.0185547 24.4092 0.15625c51.3848 1.25098 95.8125 6.96387 133.271 17.1387c42.7256 11.5938 74.6816 27.2705 95.873 47.0244c21.1914 19.748 36.0566 39.6582 44.6016 59.7188
c8.54492 20.0674 12.8145 41.3848 12.8145 63.9531z" />
    <glyph glyph-name="O" unicode="&#xd3;" horiz-adv-x="1166" 
d="M567.28 711.619l32.4238 0.000976562c66.3105 0 126.464 -4.2334 180.465 -12.6943c54.001 -8.4668 99.2881 -19.5918 135.856 -33.3867c36.5742 -13.7949 68.5303 -30.7227 95.874 -50.79s48.7041 -40.1279 64.0869 -60.1885
c15.3828 -20.0674 27.8545 -42.0107 37.4219 -65.8359c9.57324 -23.8252 15.7246 -45.1426 18.4551 -63.9531c2.73633 -18.8105 4.10156 -38.5645 4.10156 -59.251v-28.2148c0 -20.0605 -1.36523 -39.502 -4.10156 -58.3057
c-2.73633 -18.8105 -8.8877 -40.2852 -18.4551 -64.4229s-21.8711 -46.3994 -36.9111 -66.7793c-15.04 -20.374 -36.4004 -40.7539 -64.0869 -61.1279c-27.6865 -20.3799 -59.6426 -37.6201 -95.874 -51.7275s-81.5127 -25.5508 -135.856 -34.3242
c-54.3438 -8.7793 -114.665 -13.1689 -180.976 -13.1689h-32.4248c-66.3047 0 -126.801 4.38965 -181.487 13.1689c-54.6865 8.77344 -100.143 20.2168 -136.374 34.3242s-68.1875 31.3477 -95.8672 51.7275c-27.6865 20.374 -49.2148 40.7539 -64.5977 61.1279
c-15.3828 20.3799 -27.6865 42.6357 -36.9111 66.7803c-9.22461 24.1377 -15.208 45.6123 -17.9443 64.4229s-4.10156 38.2461 -4.10156 58.3066v28.2148c0 20.6924 1.36523 40.2842 4.10156 58.7812s8.71387 39.8145 17.9443 63.9521s21.5342 46.2373 36.9111 66.3047
c15.3828 20.0605 36.7432 40.1279 64.0869 60.1885s59.2998 36.9883 95.8682 50.7891c36.5742 13.7949 82.1982 24.9199 136.885 33.3867c54.6865 8.46094 115.183 12.6943 181.487 12.6943zM885.777 345.766l0.00292969 13.1719
c0 17.5537 -2.39355 34.1689 -7.18066 49.8457c-4.78711 15.6709 -14.0117 31.9736 -27.6865 48.9014c-13.6748 16.9336 -31.4443 31.3477 -53.3154 43.2607c-21.877 11.9131 -51.6074 21.793 -89.2041 29.6289c-30.915 6.44629 -65.998 10.2412 -105.236 11.3838
c-8.47266 0.246094 -26.3447 0.318359 -32.2139 0.209961c-193.839 -3.48828 -290.758 -64.5674 -290.758 -183.237v-11.2871c0 -22.5742 4.26953 -43.8857 12.8145 -63.9531s23.0674 -40.1279 43.5791 -60.1885c20.5059 -20.0674 52.293 -36.0508 95.3555 -47.9639
c39.7607 -10.999 87.3818 -16.9219 142.874 -17.7637c4.6123 -0.0722656 17.1865 -0.0185547 24.4092 0.15625c51.3848 1.25098 95.8125 6.96387 133.271 17.1387c42.7256 11.5938 74.6816 27.2705 95.873 47.0244c21.1914 19.748 36.0566 39.6582 44.6016 59.7188
c8.54492 20.0674 12.8145 41.3848 12.8145 63.9531z" />
    <glyph glyph-name="O" unicode="&#xd2;" horiz-adv-x="1166" 
d="M567.28 711.619l32.4238 0.000976562c66.3105 0 126.464 -4.2334 180.465 -12.6943c54.001 -8.4668 99.2881 -19.5918 135.856 -33.3867c36.5742 -13.7949 68.5303 -30.7227 95.874 -50.79s48.7041 -40.1279 64.0869 -60.1885
c15.3828 -20.0674 27.8545 -42.0107 37.4219 -65.8359c9.57324 -23.8252 15.7246 -45.1426 18.4551 -63.9531c2.73633 -18.8105 4.10156 -38.5645 4.10156 -59.251v-28.2148c0 -20.0605 -1.36523 -39.502 -4.10156 -58.3057
c-2.73633 -18.8105 -8.8877 -40.2852 -18.4551 -64.4229s-21.8711 -46.3994 -36.9111 -66.7793c-15.04 -20.374 -36.4004 -40.7539 -64.0869 -61.1279c-27.6865 -20.3799 -59.6426 -37.6201 -95.874 -51.7275s-81.5127 -25.5508 -135.856 -34.3242
c-54.3438 -8.7793 -114.665 -13.1689 -180.976 -13.1689h-32.4248c-66.3047 0 -126.801 4.38965 -181.487 13.1689c-54.6865 8.77344 -100.143 20.2168 -136.374 34.3242s-68.1875 31.3477 -95.8672 51.7275c-27.6865 20.374 -49.2148 40.7539 -64.5977 61.1279
c-15.3828 20.3799 -27.6865 42.6357 -36.9111 66.7803c-9.22461 24.1377 -15.208 45.6123 -17.9443 64.4229s-4.10156 38.2461 -4.10156 58.3066v28.2148c0 20.6924 1.36523 40.2842 4.10156 58.7812s8.71387 39.8145 17.9443 63.9521s21.5342 46.2373 36.9111 66.3047
c15.3828 20.0605 36.7432 40.1279 64.0869 60.1885s59.2998 36.9883 95.8682 50.7891c36.5742 13.7949 82.1982 24.9199 136.885 33.3867c54.6865 8.46094 115.183 12.6943 181.487 12.6943zM885.777 345.766l0.00292969 13.1719
c0 17.5537 -2.39355 34.1689 -7.18066 49.8457c-4.78711 15.6709 -14.0117 31.9736 -27.6865 48.9014c-13.6748 16.9336 -31.4443 31.3477 -53.3154 43.2607c-21.877 11.9131 -51.6074 21.793 -89.2041 29.6289c-30.915 6.44629 -65.998 10.2412 -105.236 11.3838
c-8.47266 0.246094 -26.3447 0.318359 -32.2139 0.209961c-193.839 -3.48828 -290.758 -64.5674 -290.758 -183.237v-11.2871c0 -22.5742 4.26953 -43.8857 12.8145 -63.9531s23.0674 -40.1279 43.5791 -60.1885c20.5059 -20.0674 52.293 -36.0508 95.3555 -47.9639
c39.7607 -10.999 87.3818 -16.9219 142.874 -17.7637c4.6123 -0.0722656 17.1865 -0.0185547 24.4092 0.15625c51.3848 1.25098 95.8125 6.96387 133.271 17.1387c42.7256 11.5938 74.6816 27.2705 95.873 47.0244c21.1914 19.748 36.0566 39.6582 44.6016 59.7188
c8.54492 20.0674 12.8145 41.3848 12.8145 63.9531z" />
    <glyph glyph-name="P" unicode="P" horiz-adv-x="1009" 
d="M632.141 232.91l-333.237 0.000976562v-233.245h-238.903v699.729h572.141c237.195 0 355.793 -75.8662 355.793 -227.599v-9.40527c0 -152.989 -118.598 -229.48 -355.793 -229.48zM298.903 540.446v-150.476h329.136c73.8213 0 110.738 24.457 110.738 73.3584v2.82031
c0 49.5332 -36.9111 74.2969 -110.738 74.2969h-329.136z" />
    <glyph glyph-name="Q" unicode="Q" horiz-adv-x="1178" 
d="M619.11 -146.096l-121.559 135.42c-78.6084 3.76465 -147.48 14.7334 -206.605 32.918s-104.755 39.3457 -136.885 63.4834s-58.1025 52.3525 -77.9229 84.6445c-19.8262 32.292 -32.4668 61.2891 -37.9395 86.9971s-8.20312 52.3535 -8.20312 79.9434v28.2148
c0 20.6924 1.36523 40.4404 4.10156 59.251s8.8877 40.2852 18.4551 64.4229s22.0449 46.2432 37.4209 66.3037c15.3828 20.0674 36.7432 39.9717 64.0869 59.7197s59.2998 36.5195 95.874 50.3145c36.5684 13.7949 82.0303 24.9258 136.368 33.3926
c54.3438 8.46094 114.671 12.6943 180.976 12.6943h44.0908c90.9121 0 170.206 -8.14844 237.882 -24.4512s119.963 -36.3633 156.88 -60.1885c36.9111 -23.8252 66.6475 -52.3535 89.2041 -85.584s36.9111 -63.3281 43.0625 -90.2861s9.23047 -55.4922 9.23047 -85.584
v-28.2148c0 -26.958 -2.56152 -52.8223 -7.69141 -77.5859c-5.12988 -24.7695 -16.5791 -52.666 -34.3486 -83.708c-17.7695 -31.0352 -41.1855 -58.3125 -70.2363 -81.8193c-29.0508 -23.5127 -70.2373 -44.8301 -123.553 -63.9531s-60.5557 -23.6631 -131.292 -36.6338
l118.94 -138.256zM897.437 345.762l-0.000976562 13.1768c0 122.266 -102.879 183.398 -308.63 183.398s-308.63 -61.1328 -308.63 -183.398v-11.2871c0 -18.1846 2.39355 -35.4248 7.18066 -51.7275s14.0117 -33.2305 27.6865 -50.79s31.4443 -32.4434 53.3154 -44.6748
c21.877 -12.2256 51.6074 -22.4121 89.2041 -30.5664c37.5967 -8.14844 81.3447 -12.2256 131.244 -12.2256c60.8389 0 112.621 5.64648 155.341 16.9277c42.7256 11.2871 74.6816 26.8018 95.873 46.5557c21.1914 19.748 36.0566 39.6592 44.6016 59.7197
s12.8145 41.6973 12.8145 64.8916z" />
    <glyph glyph-name="R" unicode="R" horiz-adv-x="1056" 
d="M298.903 247.956l-0.000976562 -248.291h-238.903v699.729h615.209c220.791 0 331.187 -60.502 331.187 -181.518v-11.2812c0 -73.9834 -47.1641 -125.086 -141.497 -153.301c43.0625 -11.2812 77.9229 -30.2539 104.587 -56.8994
c26.6582 -26.6455 39.9902 -61.2891 39.9902 -103.925v-102.512c0 -42.0098 0.0361328 -90.2861 0.0361328 -90.2861h-240.166s0.192383 23.5127 0.192383 44.1992v80.8809c0 43.2607 -11.9609 74.6152 -35.8887 94.0508s-64.9395 29.1533 -123.042 29.1533h-311.703z
M298.902 540.451v-137.313h361.945c32.8096 0 57.0742 6.27246 72.7998 18.8105s23.585 29.1533 23.585 49.8457v0.938477c0 20.0674 -7.85938 36.3701 -23.585 48.9082s-39.9902 18.8105 -72.7998 18.8105h-361.945z" />
    <glyph glyph-name="S" unicode="S" horiz-adv-x="1031" 
d="M480.02 -12.5723c-75.8721 0 -142.185 5.96875 -198.916 17.8818c-56.7373 11.9131 -100.485 26.333 -131.244 43.2607c-30.7588 16.9336 -55.1973 37.4639 -73.3096 61.6016c-18.1123 24.1445 -29.7363 45.9316 -34.8594 65.3672
c-5.12988 19.4355 -7.69141 40.1279 -7.69141 62.0713v10.3428h249.156c5.46582 -73.9834 59.293 -110.979 204.892 -110.979h55.4326c47.8496 0 68.127 2.03809 99.5713 6.11523s54.3438 9.87402 68.6982 17.4033c14.3545 7.52246 23.9277 15.2021 28.708 23.0439
s7.17969 17.0908 7.17969 27.7471c0 15.0459 -4.10156 26.959 -12.3037 35.7383s-27.3428 16.459 -57.416 23.0439c-30.0791 6.58496 -73.4844 10.5 -130.222 11.7568l-75.1621 1.61133l-56.082 1.20312c-248.134 6.27246 -372.198 74.6152 -372.198 205.029v8.46094
c0 22.5742 3.07324 43.417 9.23145 62.5459c6.15137 19.123 18.4551 38.2461 36.9102 57.3691s42.5508 35.2695 72.2871 48.4326c29.7363 13.1699 69.8945 23.9824 120.479 32.4492c50.585 8.46094 109.373 12.6943 176.357 12.6943h70.749
c69.7207 0 131.245 -4.38965 184.561 -13.1689c53.3154 -8.77344 95.873 -20.0605 127.654 -33.8555s57.7598 -30.7227 77.9229 -50.79s34.0059 -39.9717 41.5283 -59.7197c7.5166 -19.748 11.2754 -40.9092 11.2754 -63.4834v-9.40527h-248.134
c-1.38867 7.52246 -3.26465 13.9512 -5.63965 19.2793c-2.39355 5.32812 -8.03418 12.3818 -16.916 21.1611c-8.8877 8.7793 -20.5059 15.9893 -34.8604 21.6299c-14.3545 5.64648 -35.7148 10.6553 -64.0869 15.0449s-50.0752 6.58496 -87.6719 6.58496h-35.6182
c-57.417 0 -93.5762 -3.29492 -124.335 -9.87402s-49.3887 -13.4824 -55.8828 -20.6924s-9.74121 -17.084 -9.74121 -29.6221c0 -11.9131 3.58984 -21.6367 10.7637 -29.1592c7.17969 -7.52246 24.2637 -14.4199 51.2646 -20.6924s65.1084 -9.71777 114.329 -10.3428
l56.1543 -0.824219l72.0117 -1.05859c142.183 -2.50781 244.887 -20.2178 308.118 -53.1357s94.8447 -84.4893 94.8447 -154.715v-13.1631c0 -25.708 -3.07324 -48.752 -9.23145 -69.126c-6.15137 -20.3799 -18.7979 -41.2285 -37.9385 -62.5459
s-44.6016 -39.1895 -76.3887 -53.6094s-75.1924 -26.1768 -130.216 -35.2695c-55.0293 -9.09277 -119.452 -13.6387 -193.279 -13.6387h-70.7363z" />
    <glyph glyph-name="T" unicode="T" horiz-adv-x="919" 
d="M338.113 -0.334961v534.201h-328.113v165.527h898.203v-165.527h-329.136v-534.201h-240.954z" />
    <glyph glyph-name="U" unicode="U" horiz-adv-x="1054" 
d="M549.106 -1.56738l-36.4512 -0.00195312c-56.0098 0 -107.124 4.48633 -153.344 13.4648s-85.1934 20.8916 -116.908 35.7451s-59.7197 32.8037 -84.0146 53.8506s-43.5264 42.4004 -57.6943 64.0674c-14.168 21.6602 -25.8105 44.8721 -34.9209 69.6299
s-15.1836 47.3506 -18.2207 67.7783s-4.55273 40.8555 -4.55273 61.2773v335.149h236.853v-322.166c0 -24.7578 3.54199 -47.8135 10.626 -69.167s19.0625 -42.4004 35.9307 -63.1348s42.6777 -37.1387 77.4355 -49.208c34.752 -12.0693 76.4189 -18.1064 125.008 -18.1064
c47.9092 0 88.9033 6.03711 122.981 18.1064s59.7197 28.4736 76.9238 49.208c17.2109 20.7344 29.3525 41.7812 36.4424 63.1348c7.08398 21.3535 10.626 44.4092 10.626 69.167v322.166h235.843v-335.161c0 -29.0869 -3.54199 -58.4873 -10.626 -88.2002
s-21.0898 -61.7402 -42.0049 -96.0957c-20.9209 -34.3486 -47.5723 -64.5244 -79.9609 -90.5205s-77.0928 -47.6562 -134.112 -64.9873s-122.308 -25.9961 -195.858 -25.9961z" />
    <glyph glyph-name="U" unicode="&#xdc;" horiz-adv-x="1054" 
d="M549.106 -1.56738l-36.4512 -0.00195312c-56.0098 0 -107.124 4.48633 -153.344 13.4648s-85.1934 20.8916 -116.908 35.7451s-59.7197 32.8037 -84.0146 53.8506s-43.5264 42.4004 -57.6943 64.0674c-14.168 21.6602 -25.8105 44.8721 -34.9209 69.6299
s-15.1836 47.3506 -18.2207 67.7783s-4.55273 40.8555 -4.55273 61.2773v335.149h236.853v-322.166c0 -24.7578 3.54199 -47.8135 10.626 -69.167s19.0625 -42.4004 35.9307 -63.1348s42.6777 -37.1387 77.4355 -49.208c34.752 -12.0693 76.4189 -18.1064 125.008 -18.1064
c47.9092 0 88.9033 6.03711 122.981 18.1064s59.7197 28.4736 76.9238 49.208c17.2109 20.7344 29.3525 41.7812 36.4424 63.1348c7.08398 21.3535 10.626 44.4092 10.626 69.167v322.166h235.843v-335.161c0 -29.0869 -3.54199 -58.4873 -10.626 -88.2002
s-21.0898 -61.7402 -42.0049 -96.0957c-20.9209 -34.3486 -47.5723 -64.5244 -79.9609 -90.5205s-77.0928 -47.6562 -134.112 -64.9873s-122.308 -25.9961 -195.858 -25.9961z" />
    <glyph glyph-name="U" unicode="&#xdb;" horiz-adv-x="1054" 
d="M549.106 -1.56738l-36.4512 -0.00195312c-56.0098 0 -107.124 4.48633 -153.344 13.4648s-85.1934 20.8916 -116.908 35.7451s-59.7197 32.8037 -84.0146 53.8506s-43.5264 42.4004 -57.6943 64.0674c-14.168 21.6602 -25.8105 44.8721 -34.9209 69.6299
s-15.1836 47.3506 -18.2207 67.7783s-4.55273 40.8555 -4.55273 61.2773v335.149h236.853v-322.166c0 -24.7578 3.54199 -47.8135 10.626 -69.167s19.0625 -42.4004 35.9307 -63.1348s42.6777 -37.1387 77.4355 -49.208c34.752 -12.0693 76.4189 -18.1064 125.008 -18.1064
c47.9092 0 88.9033 6.03711 122.981 18.1064s59.7197 28.4736 76.9238 49.208c17.2109 20.7344 29.3525 41.7812 36.4424 63.1348c7.08398 21.3535 10.626 44.4092 10.626 69.167v322.166h235.843v-335.161c0 -29.0869 -3.54199 -58.4873 -10.626 -88.2002
s-21.0898 -61.7402 -42.0049 -96.0957c-20.9209 -34.3486 -47.5723 -64.5244 -79.9609 -90.5205s-77.0928 -47.6562 -134.112 -64.9873s-122.308 -25.9961 -195.858 -25.9961z" />
    <glyph glyph-name="U" unicode="&#xda;" horiz-adv-x="1054" 
d="M549.106 -1.56738l-36.4512 -0.00195312c-56.0098 0 -107.124 4.48633 -153.344 13.4648s-85.1934 20.8916 -116.908 35.7451s-59.7197 32.8037 -84.0146 53.8506s-43.5264 42.4004 -57.6943 64.0674c-14.168 21.6602 -25.8105 44.8721 -34.9209 69.6299
s-15.1836 47.3506 -18.2207 67.7783s-4.55273 40.8555 -4.55273 61.2773v335.149h236.853v-322.166c0 -24.7578 3.54199 -47.8135 10.626 -69.167s19.0625 -42.4004 35.9307 -63.1348s42.6777 -37.1387 77.4355 -49.208c34.752 -12.0693 76.4189 -18.1064 125.008 -18.1064
c47.9092 0 88.9033 6.03711 122.981 18.1064s59.7197 28.4736 76.9238 49.208c17.2109 20.7344 29.3525 41.7812 36.4424 63.1348c7.08398 21.3535 10.626 44.4092 10.626 69.167v322.166h235.843v-335.161c0 -29.0869 -3.54199 -58.4873 -10.626 -88.2002
s-21.0898 -61.7402 -42.0049 -96.0957c-20.9209 -34.3486 -47.5723 -64.5244 -79.9609 -90.5205s-77.0928 -47.6562 -134.112 -64.9873s-122.308 -25.9961 -195.858 -25.9961z" />
    <glyph glyph-name="U" unicode="&#xd9;" horiz-adv-x="1054" 
d="M549.106 -1.56738l-36.4512 -0.00195312c-56.0098 0 -107.124 4.48633 -153.344 13.4648s-85.1934 20.8916 -116.908 35.7451s-59.7197 32.8037 -84.0146 53.8506s-43.5264 42.4004 -57.6943 64.0674c-14.168 21.6602 -25.8105 44.8721 -34.9209 69.6299
s-15.1836 47.3506 -18.2207 67.7783s-4.55273 40.8555 -4.55273 61.2773v335.149h236.853v-322.166c0 -24.7578 3.54199 -47.8135 10.626 -69.167s19.0625 -42.4004 35.9307 -63.1348s42.6777 -37.1387 77.4355 -49.208c34.752 -12.0693 76.4189 -18.1064 125.008 -18.1064
c47.9092 0 88.9033 6.03711 122.981 18.1064s59.7197 28.4736 76.9238 49.208c17.2109 20.7344 29.3525 41.7812 36.4424 63.1348c7.08398 21.3535 10.626 44.4092 10.626 69.167v322.166h235.843v-335.161c0 -29.0869 -3.54199 -58.4873 -10.626 -88.2002
s-21.0898 -61.7402 -42.0049 -96.0957c-20.9209 -34.3486 -47.5723 -64.5244 -79.9609 -90.5205s-77.0928 -47.6562 -134.112 -64.9873s-122.308 -25.9961 -195.858 -25.9961z" />
    <glyph glyph-name="V" unicode="V" horiz-adv-x="1047" 
d="M683.26 8.64355l-293.542 0.000976562l-391.718 690.75h267.221l277.342 -507.851l260.131 507.851h244.953z" />
    <glyph glyph-name="W" unicode="W" horiz-adv-x="1467" 
d="M570.861 8.64355l-260.133 -0.000976562l-309.73 690.751h257.095l194.338 -475.354l136.614 360.063h304.433l150.078 -346.136l190.291 461.433h231.796l-304.673 -690.75h-237.863l-160.506 409.584l-39.9111 -0.0664062z" />
    <glyph glyph-name="X" unicode="X" horiz-adv-x="1047" 
d="M290.493 8.64355h-290.493l374.514 349.089l-366.413 341.662h315.804l212.559 -202.396l212.559 202.396h289.489l-361.356 -337.02l369.45 -353.731h-296.573l-230.779 214.465z" />
    <glyph glyph-name="Y" unicode="Y" horiz-adv-x="1018" 
d="M395.855 8.64355v267.39l-402.855 423.361h292.525l233.816 -254.389l237.863 254.389h266.211l-391.718 -423.361v-267.39h-235.843z" />
    <glyph glyph-name="Y" unicode="&#x178;" horiz-adv-x="1018" 
d="M395.855 8.64355v267.39l-402.855 423.361h292.525l233.816 -254.389l237.863 254.389h266.211l-391.718 -423.361v-267.39h-235.843z" />
    <glyph glyph-name="Y" unicode="&#xdd;" horiz-adv-x="1018" 
d="M395.855 8.64355v267.39l-402.855 423.361h292.525l233.816 -254.389l237.863 254.389h266.211l-391.718 -423.361v-267.39h-235.843z" />
    <glyph glyph-name="Z" unicode="Z" horiz-adv-x="914" 
d="M37.0938 699.395h840.127v-126.265l-516.222 -401.081h523.305v-163.404h-855.304v127.197l503.058 403.865h-494.964v159.688z" />
    <glyph glyph-name="bracketleft" unicode="[" horiz-adv-x="336" 
d="M60 -47.833v740.927h240.01v-86.7988h-92.0488v-566.542h92.0488v-87.5859h-240.01z" />
    <glyph glyph-name="backslash" unicode="\" horiz-adv-x="455" 
d="M314.229 -47.8271l-300.229 740.921h147.102l297.649 -740.921h-144.522z" />
    <glyph glyph-name="bracketright" unicode="]" horiz-adv-x="336" 
d="M35 -47.8271v87.5859h92.0488v566.542h-92.0488v86.793h240.01v-740.921h-240.01z" />
    <glyph glyph-name="asciicircum" unicode="^" horiz-adv-x="631" 
d="M440.961 385.498l-124.738 149.128l-124.731 -149.128h-175.491l206.461 249.337h185.811l206.461 -249.337h-173.771z" />
    <glyph glyph-name="underscore" unicode="_" horiz-adv-x="728" 
d="M13 -71.3398v103.365h701.1v-103.365h-701.1z" />
    <glyph glyph-name="grave" unicode="`" horiz-adv-x="311" 
d="M292.999 489.255h-184.95l-92.0488 121.515h199.575z" />
    <glyph glyph-name="a" unicode="a" horiz-adv-x="897" 
d="M574.377 77.3369c-17.0361 -19.3633 -45.9971 -37.332 -86.8887 -53.8994s-96.7686 -24.8477 -167.644 -24.8477h-13.29c-86.5459 0 -150.776 15.623 -192.69 46.8809c-41.9082 31.2578 -62.8652 70.6396 -62.8652 118.146v6.56055
c0 46.2559 17.8896 81.2607 53.6641 105.014c35.7803 23.7529 94.8984 39.0693 177.355 45.9424l251.466 21.5645c23.1699 2.50195 34.7578 11.252 34.7578 26.2559c0 8.12402 -2.21289 14.6846 -6.64453 19.6875c-4.43164 4.99707 -17.8896 9.84375 -40.3799 14.5283
c-22.4902 4.69043 -54.5176 7.03613 -96.0889 7.03613h-5.11133c-25.8936 0 -48.2158 -1.56348 -66.9541 -4.69043c-18.7441 -3.12695 -32.7139 -6.4043 -41.9141 -9.84375s-16.6934 -8.43652 -22.4902 -15.0029c-5.79102 -6.56055 -9.2002 -11.251 -10.2227 -14.0654
s-1.87012 -7.03613 -2.55566 -12.6592h-211.59v1.87598c0 16.2549 1.36523 30.7832 4.08887 43.5977s10.5596 27.6553 23.5127 44.5352c12.9473 16.874 30.3262 30.9395 52.1309 42.1904s54.0068 20.7822 96.6006 28.5996c42.5938 7.81152 93.1914 11.7207 151.799 11.7207
h56.2197c61.3311 0 113.811 -3.43945 157.42 -10.3125c43.6162 -6.87988 77.0088 -15.3164 100.179 -25.3164s41.2285 -22.9707 54.1758 -38.9121c12.9531 -15.9414 20.7949 -30.1572 23.5127 -42.665c2.72363 -12.502 4.08887 -27.8125 4.08887 -45.9434v-193.153
c0 -16.874 9.53711 -25.3174 28.624 -25.3174h29.6465v-136.891h-185.022c-49.75 0 -78.7109 23.1279 -86.8896 69.3838zM568.237 248l-217.731 -30.9453c-30.6689 -4.37793 -52.1309 -9.84375 -64.3984 -16.4102c-12.2676 -6.56055 -18.4014 -16.7236 -18.4014 -30.4707
v-0.938477c0 -15.623 7.83594 -29.0635 23.5127 -40.3145c15.6709 -11.251 41.2285 -16.8799 76.666 -16.8799c58.6074 0 106.649 12.1895 144.132 36.5684s56.2207 52.1973 56.2207 83.4492v15.9414z" />
    <glyph glyph-name="a" unicode="&#xe5;" horiz-adv-x="897" 
d="M574.377 77.3369c-17.0361 -19.3633 -45.9971 -37.332 -86.8887 -53.8994s-96.7686 -24.8477 -167.644 -24.8477h-13.29c-86.5459 0 -150.776 15.623 -192.69 46.8809c-41.9082 31.2578 -62.8652 70.6396 -62.8652 118.146v6.56055
c0 46.2559 17.8896 81.2607 53.6641 105.014c35.7803 23.7529 94.8984 39.0693 177.355 45.9424l251.466 21.5645c23.1699 2.50195 34.7578 11.252 34.7578 26.2559c0 8.12402 -2.21289 14.6846 -6.64453 19.6875c-4.43164 4.99707 -17.8896 9.84375 -40.3799 14.5283
c-22.4902 4.69043 -54.5176 7.03613 -96.0889 7.03613h-5.11133c-25.8936 0 -48.2158 -1.56348 -66.9541 -4.69043c-18.7441 -3.12695 -32.7139 -6.4043 -41.9141 -9.84375s-16.6934 -8.43652 -22.4902 -15.0029c-5.79102 -6.56055 -9.2002 -11.251 -10.2227 -14.0654
s-1.87012 -7.03613 -2.55566 -12.6592h-211.59v1.87598c0 16.2549 1.36523 30.7832 4.08887 43.5977s10.5596 27.6553 23.5127 44.5352c12.9473 16.874 30.3262 30.9395 52.1309 42.1904s54.0068 20.7822 96.6006 28.5996c42.5938 7.81152 93.1914 11.7207 151.799 11.7207
h56.2197c61.3311 0 113.811 -3.43945 157.42 -10.3125c43.6162 -6.87988 77.0088 -15.3164 100.179 -25.3164s41.2285 -22.9707 54.1758 -38.9121c12.9531 -15.9414 20.7949 -30.1572 23.5127 -42.665c2.72363 -12.502 4.08887 -27.8125 4.08887 -45.9434v-193.153
c0 -16.874 9.53711 -25.3174 28.624 -25.3174h29.6465v-136.891h-185.022c-49.75 0 -78.7109 23.1279 -86.8896 69.3838zM568.237 248l-217.731 -30.9453c-30.6689 -4.37793 -52.1309 -9.84375 -64.3984 -16.4102c-12.2676 -6.56055 -18.4014 -16.7236 -18.4014 -30.4707
v-0.938477c0 -15.623 7.83594 -29.0635 23.5127 -40.3145c15.6709 -11.251 41.2285 -16.8799 76.666 -16.8799c58.6074 0 106.649 12.1895 144.132 36.5684s56.2207 52.1973 56.2207 83.4492v15.9414z" />
    <glyph glyph-name="a" unicode="&#xe4;" horiz-adv-x="897" 
d="M574.377 77.3369c-17.0361 -19.3633 -45.9971 -37.332 -86.8887 -53.8994s-96.7686 -24.8477 -167.644 -24.8477h-13.29c-86.5459 0 -150.776 15.623 -192.69 46.8809c-41.9082 31.2578 -62.8652 70.6396 -62.8652 118.146v6.56055
c0 46.2559 17.8896 81.2607 53.6641 105.014c35.7803 23.7529 94.8984 39.0693 177.355 45.9424l251.466 21.5645c23.1699 2.50195 34.7578 11.252 34.7578 26.2559c0 8.12402 -2.21289 14.6846 -6.64453 19.6875c-4.43164 4.99707 -17.8896 9.84375 -40.3799 14.5283
c-22.4902 4.69043 -54.5176 7.03613 -96.0889 7.03613h-5.11133c-25.8936 0 -48.2158 -1.56348 -66.9541 -4.69043c-18.7441 -3.12695 -32.7139 -6.4043 -41.9141 -9.84375s-16.6934 -8.43652 -22.4902 -15.0029c-5.79102 -6.56055 -9.2002 -11.251 -10.2227 -14.0654
s-1.87012 -7.03613 -2.55566 -12.6592h-211.59v1.87598c0 16.2549 1.36523 30.7832 4.08887 43.5977s10.5596 27.6553 23.5127 44.5352c12.9473 16.874 30.3262 30.9395 52.1309 42.1904s54.0068 20.7822 96.6006 28.5996c42.5938 7.81152 93.1914 11.7207 151.799 11.7207
h56.2197c61.3311 0 113.811 -3.43945 157.42 -10.3125c43.6162 -6.87988 77.0088 -15.3164 100.179 -25.3164s41.2285 -22.9707 54.1758 -38.9121c12.9531 -15.9414 20.7949 -30.1572 23.5127 -42.665c2.72363 -12.502 4.08887 -27.8125 4.08887 -45.9434v-193.153
c0 -16.874 9.53711 -25.3174 28.624 -25.3174h29.6465v-136.891h-185.022c-49.75 0 -78.7109 23.1279 -86.8896 69.3838zM568.237 248l-217.731 -30.9453c-30.6689 -4.37793 -52.1309 -9.84375 -64.3984 -16.4102c-12.2676 -6.56055 -18.4014 -16.7236 -18.4014 -30.4707
v-0.938477c0 -15.623 7.83594 -29.0635 23.5127 -40.3145c15.6709 -11.251 41.2285 -16.8799 76.666 -16.8799c58.6074 0 106.649 12.1895 144.132 36.5684s56.2207 52.1973 56.2207 83.4492v15.9414z" />
    <glyph glyph-name="a" unicode="&#xe3;" horiz-adv-x="897" 
d="M574.377 77.3369c-17.0361 -19.3633 -45.9971 -37.332 -86.8887 -53.8994s-96.7686 -24.8477 -167.644 -24.8477h-13.29c-86.5459 0 -150.776 15.623 -192.69 46.8809c-41.9082 31.2578 -62.8652 70.6396 -62.8652 118.146v6.56055
c0 46.2559 17.8896 81.2607 53.6641 105.014c35.7803 23.7529 94.8984 39.0693 177.355 45.9424l251.466 21.5645c23.1699 2.50195 34.7578 11.252 34.7578 26.2559c0 8.12402 -2.21289 14.6846 -6.64453 19.6875c-4.43164 4.99707 -17.8896 9.84375 -40.3799 14.5283
c-22.4902 4.69043 -54.5176 7.03613 -96.0889 7.03613h-5.11133c-25.8936 0 -48.2158 -1.56348 -66.9541 -4.69043c-18.7441 -3.12695 -32.7139 -6.4043 -41.9141 -9.84375s-16.6934 -8.43652 -22.4902 -15.0029c-5.79102 -6.56055 -9.2002 -11.251 -10.2227 -14.0654
s-1.87012 -7.03613 -2.55566 -12.6592h-211.59v1.87598c0 16.2549 1.36523 30.7832 4.08887 43.5977s10.5596 27.6553 23.5127 44.5352c12.9473 16.874 30.3262 30.9395 52.1309 42.1904s54.0068 20.7822 96.6006 28.5996c42.5938 7.81152 93.1914 11.7207 151.799 11.7207
h56.2197c61.3311 0 113.811 -3.43945 157.42 -10.3125c43.6162 -6.87988 77.0088 -15.3164 100.179 -25.3164s41.2285 -22.9707 54.1758 -38.9121c12.9531 -15.9414 20.7949 -30.1572 23.5127 -42.665c2.72363 -12.502 4.08887 -27.8125 4.08887 -45.9434v-193.153
c0 -16.874 9.53711 -25.3174 28.624 -25.3174h29.6465v-136.891h-185.022c-49.75 0 -78.7109 23.1279 -86.8896 69.3838zM568.237 248l-217.731 -30.9453c-30.6689 -4.37793 -52.1309 -9.84375 -64.3984 -16.4102c-12.2676 -6.56055 -18.4014 -16.7236 -18.4014 -30.4707
v-0.938477c0 -15.623 7.83594 -29.0635 23.5127 -40.3145c15.6709 -11.251 41.2285 -16.8799 76.666 -16.8799c58.6074 0 106.649 12.1895 144.132 36.5684s56.2207 52.1973 56.2207 83.4492v15.9414z" />
    <glyph glyph-name="a" unicode="&#xe2;" horiz-adv-x="897" 
d="M574.377 77.3369c-17.0361 -19.3633 -45.9971 -37.332 -86.8887 -53.8994s-96.7686 -24.8477 -167.644 -24.8477h-13.29c-86.5459 0 -150.776 15.623 -192.69 46.8809c-41.9082 31.2578 -62.8652 70.6396 -62.8652 118.146v6.56055
c0 46.2559 17.8896 81.2607 53.6641 105.014c35.7803 23.7529 94.8984 39.0693 177.355 45.9424l251.466 21.5645c23.1699 2.50195 34.7578 11.252 34.7578 26.2559c0 8.12402 -2.21289 14.6846 -6.64453 19.6875c-4.43164 4.99707 -17.8896 9.84375 -40.3799 14.5283
c-22.4902 4.69043 -54.5176 7.03613 -96.0889 7.03613h-5.11133c-25.8936 0 -48.2158 -1.56348 -66.9541 -4.69043c-18.7441 -3.12695 -32.7139 -6.4043 -41.9141 -9.84375s-16.6934 -8.43652 -22.4902 -15.0029c-5.79102 -6.56055 -9.2002 -11.251 -10.2227 -14.0654
s-1.87012 -7.03613 -2.55566 -12.6592h-211.59v1.87598c0 16.2549 1.36523 30.7832 4.08887 43.5977s10.5596 27.6553 23.5127 44.5352c12.9473 16.874 30.3262 30.9395 52.1309 42.1904s54.0068 20.7822 96.6006 28.5996c42.5938 7.81152 93.1914 11.7207 151.799 11.7207
h56.2197c61.3311 0 113.811 -3.43945 157.42 -10.3125c43.6162 -6.87988 77.0088 -15.3164 100.179 -25.3164s41.2285 -22.9707 54.1758 -38.9121c12.9531 -15.9414 20.7949 -30.1572 23.5127 -42.665c2.72363 -12.502 4.08887 -27.8125 4.08887 -45.9434v-193.153
c0 -16.874 9.53711 -25.3174 28.624 -25.3174h29.6465v-136.891h-185.022c-49.75 0 -78.7109 23.1279 -86.8896 69.3838zM568.237 248l-217.731 -30.9453c-30.6689 -4.37793 -52.1309 -9.84375 -64.3984 -16.4102c-12.2676 -6.56055 -18.4014 -16.7236 -18.4014 -30.4707
v-0.938477c0 -15.623 7.83594 -29.0635 23.5127 -40.3145c15.6709 -11.251 41.2285 -16.8799 76.666 -16.8799c58.6074 0 106.649 12.1895 144.132 36.5684s56.2207 52.1973 56.2207 83.4492v15.9414z" />
    <glyph glyph-name="a" unicode="&#xe1;" horiz-adv-x="897" 
d="M574.377 77.3369c-17.0361 -19.3633 -45.9971 -37.332 -86.8887 -53.8994s-96.7686 -24.8477 -167.644 -24.8477h-13.29c-86.5459 0 -150.776 15.623 -192.69 46.8809c-41.9082 31.2578 -62.8652 70.6396 -62.8652 118.146v6.56055
c0 46.2559 17.8896 81.2607 53.6641 105.014c35.7803 23.7529 94.8984 39.0693 177.355 45.9424l251.466 21.5645c23.1699 2.50195 34.7578 11.252 34.7578 26.2559c0 8.12402 -2.21289 14.6846 -6.64453 19.6875c-4.43164 4.99707 -17.8896 9.84375 -40.3799 14.5283
c-22.4902 4.69043 -54.5176 7.03613 -96.0889 7.03613h-5.11133c-25.8936 0 -48.2158 -1.56348 -66.9541 -4.69043c-18.7441 -3.12695 -32.7139 -6.4043 -41.9141 -9.84375s-16.6934 -8.43652 -22.4902 -15.0029c-5.79102 -6.56055 -9.2002 -11.251 -10.2227 -14.0654
s-1.87012 -7.03613 -2.55566 -12.6592h-211.59v1.87598c0 16.2549 1.36523 30.7832 4.08887 43.5977s10.5596 27.6553 23.5127 44.5352c12.9473 16.874 30.3262 30.9395 52.1309 42.1904s54.0068 20.7822 96.6006 28.5996c42.5938 7.81152 93.1914 11.7207 151.799 11.7207
h56.2197c61.3311 0 113.811 -3.43945 157.42 -10.3125c43.6162 -6.87988 77.0088 -15.3164 100.179 -25.3164s41.2285 -22.9707 54.1758 -38.9121c12.9531 -15.9414 20.7949 -30.1572 23.5127 -42.665c2.72363 -12.502 4.08887 -27.8125 4.08887 -45.9434v-193.153
c0 -16.874 9.53711 -25.3174 28.624 -25.3174h29.6465v-136.891h-185.022c-49.75 0 -78.7109 23.1279 -86.8896 69.3838zM568.237 248l-217.731 -30.9453c-30.6689 -4.37793 -52.1309 -9.84375 -64.3984 -16.4102c-12.2676 -6.56055 -18.4014 -16.7236 -18.4014 -30.4707
v-0.938477c0 -15.623 7.83594 -29.0635 23.5127 -40.3145c15.6709 -11.251 41.2285 -16.8799 76.666 -16.8799c58.6074 0 106.649 12.1895 144.132 36.5684s56.2207 52.1973 56.2207 83.4492v15.9414z" />
    <glyph glyph-name="a" unicode="&#xe0;" horiz-adv-x="897" 
d="M574.377 77.3369c-17.0361 -19.3633 -45.9971 -37.332 -86.8887 -53.8994s-96.7686 -24.8477 -167.644 -24.8477h-13.29c-86.5459 0 -150.776 15.623 -192.69 46.8809c-41.9082 31.2578 -62.8652 70.6396 -62.8652 118.146v6.56055
c0 46.2559 17.8896 81.2607 53.6641 105.014c35.7803 23.7529 94.8984 39.0693 177.355 45.9424l251.466 21.5645c23.1699 2.50195 34.7578 11.252 34.7578 26.2559c0 8.12402 -2.21289 14.6846 -6.64453 19.6875c-4.43164 4.99707 -17.8896 9.84375 -40.3799 14.5283
c-22.4902 4.69043 -54.5176 7.03613 -96.0889 7.03613h-5.11133c-25.8936 0 -48.2158 -1.56348 -66.9541 -4.69043c-18.7441 -3.12695 -32.7139 -6.4043 -41.9141 -9.84375s-16.6934 -8.43652 -22.4902 -15.0029c-5.79102 -6.56055 -9.2002 -11.251 -10.2227 -14.0654
s-1.87012 -7.03613 -2.55566 -12.6592h-211.59v1.87598c0 16.2549 1.36523 30.7832 4.08887 43.5977s10.5596 27.6553 23.5127 44.5352c12.9473 16.874 30.3262 30.9395 52.1309 42.1904s54.0068 20.7822 96.6006 28.5996c42.5938 7.81152 93.1914 11.7207 151.799 11.7207
h56.2197c61.3311 0 113.811 -3.43945 157.42 -10.3125c43.6162 -6.87988 77.0088 -15.3164 100.179 -25.3164s41.2285 -22.9707 54.1758 -38.9121c12.9531 -15.9414 20.7949 -30.1572 23.5127 -42.665c2.72363 -12.502 4.08887 -27.8125 4.08887 -45.9434v-193.153
c0 -16.874 9.53711 -25.3174 28.624 -25.3174h29.6465v-136.891h-185.022c-49.75 0 -78.7109 23.1279 -86.8896 69.3838zM568.237 248l-217.731 -30.9453c-30.6689 -4.37793 -52.1309 -9.84375 -64.3984 -16.4102c-12.2676 -6.56055 -18.4014 -16.7236 -18.4014 -30.4707
v-0.938477c0 -15.623 7.83594 -29.0635 23.5127 -40.3145c15.6709 -11.251 41.2285 -16.8799 76.666 -16.8799c58.6074 0 106.649 12.1895 144.132 36.5684s56.2207 52.1973 56.2207 83.4492v15.9414z" />
    <glyph glyph-name="b" unicode="b" horiz-adv-x="960" 
d="M51 706.503h227.957v-263.475c75.6436 55.0117 167.307 82.5117 274.978 82.5117h18.4014c117.215 0 202.57 -23.2842 256.066 -69.8525s80.2441 -107.671 80.2441 -183.303v-17.8184c0 -35.0049 -6.64453 -67.6641 -19.9346 -97.9844
c-13.29 -30.3135 -33.2188 -57.5068 -59.7979 -81.5732s-62.3535 -43.1348 -107.334 -57.1943c-44.9746 -14.0654 -97.1113 -21.0947 -156.398 -21.0947h-17.3789c-68.1504 0 -125.735 9.53125 -172.755 28.5996s-80.0752 37.3496 -99.1562 54.8486
c-5.4541 -14.3721 -10.2227 -38.1309 -14.3115 -71.2588h-210.58v697.594zM278.957 264.885v-3.75977c0 -34.3789 17.3789 -64.8496 52.1309 -91.417c34.7578 -26.5674 83.4795 -39.8447 146.176 -39.8447h6.13379c67.4648 0 116.36 12.9707 146.687 38.9131
s45.4863 56.7256 45.4863 92.3555v3.75195c0 37.5059 -14.9912 68.6016 -44.9746 93.293s-79.0537 37.0312 -147.198 37.0312h-6.13379c-64.0615 0 -113.126 -12.8145 -147.198 -38.4375s-51.1084 -56.2617 -51.1084 -91.8857z" />
    <glyph glyph-name="c" unicode="c" horiz-adv-x="929" 
d="M434.335 -3.29199c-59.9727 0 -113.295 5.47559 -159.978 16.4199c-46.6826 10.9385 -83.6533 24.998 -110.912 42.1904c-27.2588 17.1865 -49.749 37.6621 -67.4648 61.415s-29.6465 46.8809 -35.7803 69.3838s-9.2002 45.9434 -9.2002 70.3223v18.75
c0 24.3789 3.06641 47.6631 9.2002 69.8525s17.8906 44.8486 35.2637 67.9766c17.3789 23.1279 39.8691 42.9785 67.4648 59.54c27.6016 16.5674 64.5723 30.1582 110.912 40.7842s99.4932 15.9414 159.466 15.9414h58.2646c65.4209 0 122.669 -5.62891 171.733 -16.8799
s86.7207 -24.8477 112.957 -40.7832c26.2373 -15.9355 47.5371 -34.6914 63.8877 -56.2559c16.3564 -21.5703 26.748 -40.6328 31.1797 -57.1943c4.43164 -16.5674 6.64453 -32.9717 6.64453 -49.2266v-2.81445h-234.087
c-15.6768 60.6338 -76.3291 90.9482 -181.956 90.9482h-3.06641c-61.3311 0 -105.801 -11.7207 -133.396 -35.1611c-27.6016 -23.4404 -41.4023 -53.2852 -41.4023 -89.5469v-6.56055c0 -38.1318 13.9697 -70.166 41.9141 -96.1084s72.2393 -38.9131 132.885 -38.9131
h3.06641c104.947 0 165.6 30.9453 181.956 92.8242h234.087v-1.87598c0 -17.5049 -2.04492 -34.5352 -6.13379 -51.1025s-13.9688 -35.9424 -29.6455 -58.1318c-15.6709 -22.1895 -36.6279 -41.2578 -62.8643 -57.1934
c-26.2373 -15.9414 -64.2305 -29.6943 -113.98 -41.2578s-108.015 -17.3428 -174.801 -17.3428h-56.2139z" />
    <glyph glyph-name="c" unicode="&#xe7;" horiz-adv-x="929" 
d="M434.335 -3.29199c-59.9727 0 -113.295 5.47559 -159.978 16.4199c-46.6826 10.9385 -83.6533 24.998 -110.912 42.1904c-27.2588 17.1865 -49.749 37.6621 -67.4648 61.415s-29.6465 46.8809 -35.7803 69.3838s-9.2002 45.9434 -9.2002 70.3223v18.75
c0 24.3789 3.06641 47.6631 9.2002 69.8525s17.8906 44.8486 35.2637 67.9766c17.3789 23.1279 39.8691 42.9785 67.4648 59.54c27.6016 16.5674 64.5723 30.1582 110.912 40.7842s99.4932 15.9414 159.466 15.9414h58.2646c65.4209 0 122.669 -5.62891 171.733 -16.8799
s86.7207 -24.8477 112.957 -40.7832c26.2373 -15.9355 47.5371 -34.6914 63.8877 -56.2559c16.3564 -21.5703 26.748 -40.6328 31.1797 -57.1943c4.43164 -16.5674 6.64453 -32.9717 6.64453 -49.2266v-2.81445h-234.087
c-15.6768 60.6338 -76.3291 90.9482 -181.956 90.9482h-3.06641c-61.3311 0 -105.801 -11.7207 -133.396 -35.1611c-27.6016 -23.4404 -41.4023 -53.2852 -41.4023 -89.5469v-6.56055c0 -38.1318 13.9697 -70.166 41.9141 -96.1084s72.2393 -38.9131 132.885 -38.9131
h3.06641c104.947 0 165.6 30.9453 181.956 92.8242h234.087v-1.87598c0 -17.5049 -2.04492 -34.5352 -6.13379 -51.1025s-13.9688 -35.9424 -29.6455 -58.1318c-15.6709 -22.1895 -36.6279 -41.2578 -62.8643 -57.1934
c-26.2373 -15.9414 -64.2305 -29.6943 -113.98 -41.2578s-108.015 -17.3428 -174.801 -17.3428h-56.2139z" />
    <glyph glyph-name="d" unicode="d" horiz-adv-x="961" 
d="M680.689 706.503l228.975 0.000976562v-697.594h-226.931v76.8828c-5.4541 -6.87305 -13.9756 -14.5283 -25.5576 -22.9717s-27.9385 -17.9688 -49.0635 -28.6006c-21.125 -10.626 -49.0635 -19.5322 -83.8213 -26.7246s-72.5762 -10.7822 -113.468 -10.7822h-13.29
c-115.85 0 -202.57 24.2227 -260.155 72.667s-86.3779 110.798 -86.3779 187.055v17.8184c0 73.7617 27.2588 134.077 81.7773 180.958s139.705 70.3213 255.555 70.3213h16.3564c117.895 0 209.895 -26.5615 276.001 -79.6963v260.666zM680.683 263.941
c0 35.0049 -18.7314 65.3242 -56.2139 90.9541s-88.2539 38.4385 -152.31 38.4385h-5.11133c-66.1064 0 -113.126 -12.1895 -141.064 -36.5684s-41.9141 -55.3184 -41.9141 -92.8242v-3.75195c0 -35.0049 15.334 -65.4756 45.9971 -91.418
c30.6689 -25.9424 77.0088 -38.9131 139.02 -38.9131h5.11133c64.0615 0 114.49 12.9707 151.287 38.9131c36.8027 25.9424 55.1982 56.4131 55.1982 91.418v3.75195z" />
    <glyph glyph-name="e" unicode="e" horiz-adv-x="928" 
d="M873.885 186.59c0 -15.623 -2.37988 -31.0967 -7.14844 -46.4072s-15.334 -32.0342 -31.6904 -50.165c-16.3564 -18.125 -37.4814 -33.9102 -63.376 -47.3506c-25.9004 -13.4404 -62.5283 -24.6914 -109.891 -33.7539s-102.392 -13.5967 -165.088 -13.5967h-58.2646
c-70.875 0 -132.206 7.0293 -184 21.0947s-92 33.5977 -120.624 58.6016c-28.624 24.998 -49.5752 52.1973 -62.8652 81.5732c-13.29 29.3818 -19.9346 61.5723 -19.9346 96.5771v20.626c0 34.3789 6.13379 65.9434 18.4014 94.7002s32.1963 55.4746 59.7979 80.1719
c27.5957 24.6914 67.1221 44.0664 118.579 58.1318c51.4512 14.0654 112.957 21.0947 184.512 21.0947h62.3535c254.875 0 382.312 -90.6416 382.312 -271.918v-34.6914h-602.094c14.9912 -65.6367 79.7324 -98.4463 194.223 -98.4463h1.02246
c28.624 0 54.0068 1.87598 76.1543 5.62207c22.1475 3.75195 39.3516 8.28613 51.6191 13.5957c12.2676 5.31543 22.3164 11.251 30.1582 17.8174c7.84766 6.56641 13.1279 11.876 15.8457 15.9414c2.74219 4.06543 4.4502 7.96777 5.11133 11.7197h224.886v-0.938477z
M462.955 410.681h-1.02246c-103.582 0 -164.577 -28.4375 -182.979 -85.3193h368.001c-16.3564 56.8818 -77.6875 85.3193 -184 85.3193z" />
    <glyph glyph-name="e" unicode="&#xeb;" horiz-adv-x="928" 
d="M873.885 186.59c0 -15.623 -2.37988 -31.0967 -7.14844 -46.4072s-15.334 -32.0342 -31.6904 -50.165c-16.3564 -18.125 -37.4814 -33.9102 -63.376 -47.3506c-25.9004 -13.4404 -62.5283 -24.6914 -109.891 -33.7539s-102.392 -13.5967 -165.088 -13.5967h-58.2646
c-70.875 0 -132.206 7.0293 -184 21.0947s-92 33.5977 -120.624 58.6016c-28.624 24.998 -49.5752 52.1973 -62.8652 81.5732c-13.29 29.3818 -19.9346 61.5723 -19.9346 96.5771v20.626c0 34.3789 6.13379 65.9434 18.4014 94.7002s32.1963 55.4746 59.7979 80.1719
c27.5957 24.6914 67.1221 44.0664 118.579 58.1318c51.4512 14.0654 112.957 21.0947 184.512 21.0947h62.3535c254.875 0 382.312 -90.6416 382.312 -271.918v-34.6914h-602.094c14.9912 -65.6367 79.7324 -98.4463 194.223 -98.4463h1.02246
c28.624 0 54.0068 1.87598 76.1543 5.62207c22.1475 3.75195 39.3516 8.28613 51.6191 13.5957c12.2676 5.31543 22.3164 11.251 30.1582 17.8174c7.84766 6.56641 13.1279 11.876 15.8457 15.9414c2.74219 4.06543 4.4502 7.96777 5.11133 11.7197h224.886v-0.938477z
M462.955 410.681h-1.02246c-103.582 0 -164.577 -28.4375 -182.979 -85.3193h368.001c-16.3564 56.8818 -77.6875 85.3193 -184 85.3193z" />
    <glyph glyph-name="e" unicode="&#xea;" horiz-adv-x="928" 
d="M873.885 186.59c0 -15.623 -2.37988 -31.0967 -7.14844 -46.4072s-15.334 -32.0342 -31.6904 -50.165c-16.3564 -18.125 -37.4814 -33.9102 -63.376 -47.3506c-25.9004 -13.4404 -62.5283 -24.6914 -109.891 -33.7539s-102.392 -13.5967 -165.088 -13.5967h-58.2646
c-70.875 0 -132.206 7.0293 -184 21.0947s-92 33.5977 -120.624 58.6016c-28.624 24.998 -49.5752 52.1973 -62.8652 81.5732c-13.29 29.3818 -19.9346 61.5723 -19.9346 96.5771v20.626c0 34.3789 6.13379 65.9434 18.4014 94.7002s32.1963 55.4746 59.7979 80.1719
c27.5957 24.6914 67.1221 44.0664 118.579 58.1318c51.4512 14.0654 112.957 21.0947 184.512 21.0947h62.3535c254.875 0 382.312 -90.6416 382.312 -271.918v-34.6914h-602.094c14.9912 -65.6367 79.7324 -98.4463 194.223 -98.4463h1.02246
c28.624 0 54.0068 1.87598 76.1543 5.62207c22.1475 3.75195 39.3516 8.28613 51.6191 13.5957c12.2676 5.31543 22.3164 11.251 30.1582 17.8174c7.84766 6.56641 13.1279 11.876 15.8457 15.9414c2.74219 4.06543 4.4502 7.96777 5.11133 11.7197h224.886v-0.938477z
M462.955 410.681h-1.02246c-103.582 0 -164.577 -28.4375 -182.979 -85.3193h368.001c-16.3564 56.8818 -77.6875 85.3193 -184 85.3193z" />
    <glyph glyph-name="e" unicode="&#xe9;" horiz-adv-x="928" 
d="M873.885 186.59c0 -15.623 -2.37988 -31.0967 -7.14844 -46.4072s-15.334 -32.0342 -31.6904 -50.165c-16.3564 -18.125 -37.4814 -33.9102 -63.376 -47.3506c-25.9004 -13.4404 -62.5283 -24.6914 -109.891 -33.7539s-102.392 -13.5967 -165.088 -13.5967h-58.2646
c-70.875 0 -132.206 7.0293 -184 21.0947s-92 33.5977 -120.624 58.6016c-28.624 24.998 -49.5752 52.1973 -62.8652 81.5732c-13.29 29.3818 -19.9346 61.5723 -19.9346 96.5771v20.626c0 34.3789 6.13379 65.9434 18.4014 94.7002s32.1963 55.4746 59.7979 80.1719
c27.5957 24.6914 67.1221 44.0664 118.579 58.1318c51.4512 14.0654 112.957 21.0947 184.512 21.0947h62.3535c254.875 0 382.312 -90.6416 382.312 -271.918v-34.6914h-602.094c14.9912 -65.6367 79.7324 -98.4463 194.223 -98.4463h1.02246
c28.624 0 54.0068 1.87598 76.1543 5.62207c22.1475 3.75195 39.3516 8.28613 51.6191 13.5957c12.2676 5.31543 22.3164 11.251 30.1582 17.8174c7.84766 6.56641 13.1279 11.876 15.8457 15.9414c2.74219 4.06543 4.4502 7.96777 5.11133 11.7197h224.886v-0.938477z
M462.955 410.681h-1.02246c-103.582 0 -164.577 -28.4375 -182.979 -85.3193h368.001c-16.3564 56.8818 -77.6875 85.3193 -184 85.3193z" />
    <glyph glyph-name="e" unicode="&#xe8;" horiz-adv-x="928" 
d="M873.885 186.59c0 -15.623 -2.37988 -31.0967 -7.14844 -46.4072s-15.334 -32.0342 -31.6904 -50.165c-16.3564 -18.125 -37.4814 -33.9102 -63.376 -47.3506c-25.9004 -13.4404 -62.5283 -24.6914 -109.891 -33.7539s-102.392 -13.5967 -165.088 -13.5967h-58.2646
c-70.875 0 -132.206 7.0293 -184 21.0947s-92 33.5977 -120.624 58.6016c-28.624 24.998 -49.5752 52.1973 -62.8652 81.5732c-13.29 29.3818 -19.9346 61.5723 -19.9346 96.5771v20.626c0 34.3789 6.13379 65.9434 18.4014 94.7002s32.1963 55.4746 59.7979 80.1719
c27.5957 24.6914 67.1221 44.0664 118.579 58.1318c51.4512 14.0654 112.957 21.0947 184.512 21.0947h62.3535c254.875 0 382.312 -90.6416 382.312 -271.918v-34.6914h-602.094c14.9912 -65.6367 79.7324 -98.4463 194.223 -98.4463h1.02246
c28.624 0 54.0068 1.87598 76.1543 5.62207c22.1475 3.75195 39.3516 8.28613 51.6191 13.5957c12.2676 5.31543 22.3164 11.251 30.1582 17.8174c7.84766 6.56641 13.1279 11.876 15.8457 15.9414c2.74219 4.06543 4.4502 7.96777 5.11133 11.7197h224.886v-0.938477z
M462.955 410.681h-1.02246c-103.582 0 -164.577 -28.4375 -182.979 -85.3193h368.001c-16.3564 56.8818 -77.6875 85.3193 -184 85.3193z" />
    <glyph glyph-name="f" unicode="f" horiz-adv-x="564" 
d="M513.046 576.642h-88.9395c-17.0361 0 -28.4561 -3.12695 -34.2412 -9.375c-5.79102 -6.24805 -8.68945 -16.874 -8.68945 -31.8779v-28.1309h131.869v-138.767h-131.869v-365.674h-224.886v365.674h-105.29v138.767h105.29v60.0088
c0 88.7588 63.7188 133.145 191.156 133.145h165.6v-123.77z" />
    <glyph glyph-name="g" unicode="g" horiz-adv-x="969" 
d="M531.441 -205.099l-72.5713 -0.00195312c-65.4209 0 -122.495 5.15918 -171.223 15.4727s-85.5244 22.3467 -110.402 36.0996c-24.8721 13.7529 -44.8066 29.8506 -59.7979 48.2881s-24.1914 33.5977 -27.6006 45.4746s-5.11133 23.4404 -5.11133 34.6914v2.81445
h229.998c8.17871 -31.252 66.7861 -46.8809 175.822 -46.8809h3.06641c130.848 0 196.269 48.4443 196.269 145.334c-62.0166 -50.6338 -151.287 -75.9502 -267.822 -75.9502h-12.2676c-121.304 0 -211.428 22.5029 -270.378 67.5078s-88.4219 102.83 -88.4219 173.465
v18.75c0 67.5078 26.5791 123.451 79.7324 167.837s136.639 66.5693 250.443 66.5693h21.4678c128.803 0 224.207 -26.5615 286.224 -79.6963v67.5078h228.976v-412.555c0 -21.252 -2.3877 -42.5039 -7.15625 -63.7559s-15.5029 -45.1611 -32.2021 -71.7285
c-16.6934 -26.5674 -38.3301 -49.6953 -64.9092 -69.3838s-64.2295 -36.2559 -112.957 -49.6963s-105.116 -20.1631 -169.178 -20.1631zM477.277 363.102l-6.14062 0.000976562c-67.4648 0 -115.681 -10.626 -144.642 -31.8779
c-28.9609 -21.2578 -43.4414 -48.1318 -43.4414 -80.6348v-4.69043c0 -32.5029 15.166 -60.165 45.4863 -82.9805c30.3262 -22.8154 77.8623 -34.2227 142.604 -34.2227h6.13379c67.4648 0 118.916 11.4072 154.354 34.2227c35.4375 22.8213 53.1533 50.165 53.1533 82.043
v3.75195c0 32.5029 -17.7158 59.6895 -53.1533 81.5723c-35.4375 21.877 -86.8887 32.8154 -154.354 32.8154z" />
    <glyph glyph-name="h" unicode="h" horiz-adv-x="876" 
d="M51 2.81152l0.000976562 697.6h227.953v-277.54c69.5098 63.7549 159.809 95.6387 270.89 95.6387h7.15625c88.5908 0 155.377 -19.2188 200.357 -57.6631c44.9746 -38.4385 67.4648 -84.8564 67.4648 -139.236v-318.793h-229.998v249.403
c0 40.0078 -12.2676 70.9473 -36.8027 92.8242s-61.332 32.8154 -110.402 32.8154c-51.1084 0 -92 -12.502 -122.669 -37.5059s-45.9971 -58.1318 -45.9971 -99.3848v-238.158h-227.953z" />
    <glyph glyph-name="i" unicode="i" horiz-adv-x="330" 
d="M278.953 700.411v-144.396h-227.953v144.396h227.953zM278.953 507.259v-504.447h-227.953v504.447h227.953z" />
    <glyph glyph-name="i" unicode="&#xef;" horiz-adv-x="330" 
d="M278.953 700.411v-144.396h-227.953v144.396h227.953zM278.953 507.259v-504.447h-227.953v504.447h227.953z" />
    <glyph glyph-name="i" unicode="&#xee;" horiz-adv-x="330" 
d="M278.953 700.411v-144.396h-227.953v144.396h227.953zM278.953 507.259v-504.447h-227.953v504.447h227.953z" />
    <glyph glyph-name="i" unicode="&#xed;" horiz-adv-x="330" 
d="M278.953 700.411v-144.396h-227.953v144.396h227.953zM278.953 507.259v-504.447h-227.953v504.447h227.953z" />
    <glyph glyph-name="i" unicode="&#xec;" horiz-adv-x="330" 
d="M278.953 700.411v-144.396h-227.953v144.396h227.953zM278.953 507.259v-504.447h-227.953v504.447h227.953z" />
    <glyph glyph-name="j" unicode="j" horiz-adv-x="341" 
d="M-13 -26.7207l41.915 0.00195312c12.2676 0 20.7822 2.33887 25.5566 7.0293c4.76855 4.69043 7.15625 14.2217 7.15625 28.5996v497.88h227.953v-550.39c0 -44.3799 -9.53711 -77.1953 -28.624 -98.4473s-44.2959 -31.8838 -75.6445 -31.8838h-198.312v147.21z
M289.581 699.944v-144.396h-227.953v144.396h227.953z" />
    <glyph glyph-name="k" unicode="k" horiz-adv-x="837" 
d="M51 2.81738v697.594h227.953v-394.743l222.842 201.59h252.488l-259.645 -227.845l291.335 -276.596h-267.822l-239.198 231.591v-231.591h-227.953z" />
    <glyph glyph-name="l" unicode="l" horiz-adv-x="330" 
d="M278.953 700.411v-697.6h-227.953v697.6h227.953z" />
    <glyph glyph-name="m" unicode="m" horiz-adv-x="1355" 
d="M51 5.16309l0.00195312 504.438h225.914v-87.2012c71.5547 65.6367 158.786 98.4521 261.688 98.4521h7.15625c106.312 0 179.568 -33.4473 219.774 -100.329c72.9199 66.8818 165.263 100.329 277.023 100.329h8.17871c84.501 0 147.883 -19.375 190.134 -58.1318
s63.376 -85.0127 63.376 -138.768v-318.793h-229.998v249.409c0 83.7617 -41.5713 125.646 -124.714 125.646c-48.3848 0 -86.7207 -12.8145 -115.002 -38.4443s-42.4248 -58.4453 -42.4248 -98.4473v-238.158h-229.998v249.403
c0 83.7617 -41.9141 125.646 -125.736 125.646c-48.3848 0 -86.7207 -12.8145 -115.002 -38.4443s-42.4248 -58.4453 -42.4248 -98.4473v-238.158h-227.947z" />
    <glyph glyph-name="n" unicode="n" horiz-adv-x="876" 
d="M51 509.598l225.916 0.000976562v-86.2578c70.875 65.0059 161.853 97.5146 272.934 97.5146h7.15625c89.2764 0 156.23 -19.2188 200.868 -57.6631c44.6377 -38.4385 66.9541 -84.8564 66.9541 -139.236v-318.793h-229.998v249.403
c0 40.0078 -12.2676 70.9473 -36.8027 92.8242s-61.332 32.8154 -110.402 32.8154c-51.1084 0 -92 -12.502 -122.669 -37.5059s-46.0029 -58.1318 -46.0029 -99.3848v-238.158h-227.953v504.44z" />
    <glyph glyph-name="n" unicode="&#xf1;" horiz-adv-x="876" 
d="M51 509.598l225.916 0.000976562v-86.2578c70.875 65.0059 161.853 97.5146 272.934 97.5146h7.15625c89.2764 0 156.23 -19.2188 200.868 -57.6631c44.6377 -38.4385 66.9541 -84.8564 66.9541 -139.236v-318.793h-229.998v249.403
c0 40.0078 -12.2676 70.9473 -36.8027 92.8242s-61.332 32.8154 -110.402 32.8154c-51.1084 0 -92 -12.502 -122.669 -37.5059s-46.0029 -58.1318 -46.0029 -99.3848v-238.158h-227.953v504.44z" />
    <glyph glyph-name="o" unicode="o" horiz-adv-x="923" 
d="M497.146 -2.29297l-71.5439 -0.000976562c-61.3311 0 -115.681 5.46582 -163.043 16.4102c-47.3623 10.9385 -85.3555 24.8477 -113.979 41.7217c-28.624 16.8799 -52.1309 37.1934 -70.5322 60.9463s-31.0059 47.0371 -37.8252 69.8525
c-6.81348 22.8154 -10.2227 46.7246 -10.2227 71.7227v16.8799c0 25.0039 3.40918 48.7568 10.2227 71.2598s19.2549 45.3184 37.3076 68.4463c18.0586 23.1279 41.4033 42.9727 70.0215 59.54c28.624 16.5674 66.6172 30.002 113.974 40.3213
c47.3623 10.3135 101.712 15.4727 163.043 15.4727h72.5771c262.368 0 393.559 -85.0127 393.559 -255.032v-16.8799c0 -173.771 -131.184 -260.66 -393.558 -260.66zM461.388 133.665c70.875 0 121.636 12.8096 152.305 38.4395s46.0029 56.2568 46.0029 91.8867v4.69043
c0 36.2549 -15.334 66.5752 -46.0029 90.9541s-81.0977 36.5684 -151.287 36.5684h-1.02246c-71.5547 0 -122.495 -12.0332 -152.821 -36.0996s-45.4863 -54.5371 -45.4863 -91.418v-4.69043c0 -35.6299 15.334 -66.2568 46.0029 -91.8867s81.4346 -38.4443 152.31 -38.4443
z" />
    <glyph glyph-name="o" unicode="&#xf8;" horiz-adv-x="923" 
d="M497.146 -2.29297l-71.5439 -0.000976562c-61.3311 0 -115.681 5.46582 -163.043 16.4102c-47.3623 10.9385 -85.3555 24.8477 -113.979 41.7217c-28.624 16.8799 -52.1309 37.1934 -70.5322 60.9463s-31.0059 47.0371 -37.8252 69.8525
c-6.81348 22.8154 -10.2227 46.7246 -10.2227 71.7227v16.8799c0 25.0039 3.40918 48.7568 10.2227 71.2598s19.2549 45.3184 37.3076 68.4463c18.0586 23.1279 41.4033 42.9727 70.0215 59.54c28.624 16.5674 66.6172 30.002 113.974 40.3213
c47.3623 10.3135 101.712 15.4727 163.043 15.4727h72.5771c262.368 0 393.559 -85.0127 393.559 -255.032v-16.8799c0 -173.771 -131.184 -260.66 -393.558 -260.66zM461.388 133.665c70.875 0 121.636 12.8096 152.305 38.4395s46.0029 56.2568 46.0029 91.8867v4.69043
c0 36.2549 -15.334 66.5752 -46.0029 90.9541s-81.0977 36.5684 -151.287 36.5684h-1.02246c-71.5547 0 -122.495 -12.0332 -152.821 -36.0996s-45.4863 -54.5371 -45.4863 -91.418v-4.69043c0 -35.6299 15.334 -66.2568 46.0029 -91.8867s81.4346 -38.4443 152.31 -38.4443
z" />
    <glyph glyph-name="o" unicode="&#xf6;" horiz-adv-x="923" 
d="M497.146 -2.29297l-71.5439 -0.000976562c-61.3311 0 -115.681 5.46582 -163.043 16.4102c-47.3623 10.9385 -85.3555 24.8477 -113.979 41.7217c-28.624 16.8799 -52.1309 37.1934 -70.5322 60.9463s-31.0059 47.0371 -37.8252 69.8525
c-6.81348 22.8154 -10.2227 46.7246 -10.2227 71.7227v16.8799c0 25.0039 3.40918 48.7568 10.2227 71.2598s19.2549 45.3184 37.3076 68.4463c18.0586 23.1279 41.4033 42.9727 70.0215 59.54c28.624 16.5674 66.6172 30.002 113.974 40.3213
c47.3623 10.3135 101.712 15.4727 163.043 15.4727h72.5771c262.368 0 393.559 -85.0127 393.559 -255.032v-16.8799c0 -173.771 -131.184 -260.66 -393.558 -260.66zM461.388 133.665c70.875 0 121.636 12.8096 152.305 38.4395s46.0029 56.2568 46.0029 91.8867v4.69043
c0 36.2549 -15.334 66.5752 -46.0029 90.9541s-81.0977 36.5684 -151.287 36.5684h-1.02246c-71.5547 0 -122.495 -12.0332 -152.821 -36.0996s-45.4863 -54.5371 -45.4863 -91.418v-4.69043c0 -35.6299 15.334 -66.2568 46.0029 -91.8867s81.4346 -38.4443 152.31 -38.4443
z" />
    <glyph glyph-name="o" unicode="&#xf5;" horiz-adv-x="923" 
d="M497.146 -2.29297l-71.5439 -0.000976562c-61.3311 0 -115.681 5.46582 -163.043 16.4102c-47.3623 10.9385 -85.3555 24.8477 -113.979 41.7217c-28.624 16.8799 -52.1309 37.1934 -70.5322 60.9463s-31.0059 47.0371 -37.8252 69.8525
c-6.81348 22.8154 -10.2227 46.7246 -10.2227 71.7227v16.8799c0 25.0039 3.40918 48.7568 10.2227 71.2598s19.2549 45.3184 37.3076 68.4463c18.0586 23.1279 41.4033 42.9727 70.0215 59.54c28.624 16.5674 66.6172 30.002 113.974 40.3213
c47.3623 10.3135 101.712 15.4727 163.043 15.4727h72.5771c262.368 0 393.559 -85.0127 393.559 -255.032v-16.8799c0 -173.771 -131.184 -260.66 -393.558 -260.66zM461.388 133.665c70.875 0 121.636 12.8096 152.305 38.4395s46.0029 56.2568 46.0029 91.8867v4.69043
c0 36.2549 -15.334 66.5752 -46.0029 90.9541s-81.0977 36.5684 -151.287 36.5684h-1.02246c-71.5547 0 -122.495 -12.0332 -152.821 -36.0996s-45.4863 -54.5371 -45.4863 -91.418v-4.69043c0 -35.6299 15.334 -66.2568 46.0029 -91.8867s81.4346 -38.4443 152.31 -38.4443
z" />
    <glyph glyph-name="o" unicode="&#xf4;" horiz-adv-x="923" 
d="M497.146 -2.29297l-71.5439 -0.000976562c-61.3311 0 -115.681 5.46582 -163.043 16.4102c-47.3623 10.9385 -85.3555 24.8477 -113.979 41.7217c-28.624 16.8799 -52.1309 37.1934 -70.5322 60.9463s-31.0059 47.0371 -37.8252 69.8525
c-6.81348 22.8154 -10.2227 46.7246 -10.2227 71.7227v16.8799c0 25.0039 3.40918 48.7568 10.2227 71.2598s19.2549 45.3184 37.3076 68.4463c18.0586 23.1279 41.4033 42.9727 70.0215 59.54c28.624 16.5674 66.6172 30.002 113.974 40.3213
c47.3623 10.3135 101.712 15.4727 163.043 15.4727h72.5771c262.368 0 393.559 -85.0127 393.559 -255.032v-16.8799c0 -173.771 -131.184 -260.66 -393.558 -260.66zM461.388 133.665c70.875 0 121.636 12.8096 152.305 38.4395s46.0029 56.2568 46.0029 91.8867v4.69043
c0 36.2549 -15.334 66.5752 -46.0029 90.9541s-81.0977 36.5684 -151.287 36.5684h-1.02246c-71.5547 0 -122.495 -12.0332 -152.821 -36.0996s-45.4863 -54.5371 -45.4863 -91.418v-4.69043c0 -35.6299 15.334 -66.2568 46.0029 -91.8867s81.4346 -38.4443 152.31 -38.4443
z" />
    <glyph glyph-name="o" unicode="&#xf3;" horiz-adv-x="923" 
d="M497.146 -2.29297l-71.5439 -0.000976562c-61.3311 0 -115.681 5.46582 -163.043 16.4102c-47.3623 10.9385 -85.3555 24.8477 -113.979 41.7217c-28.624 16.8799 -52.1309 37.1934 -70.5322 60.9463s-31.0059 47.0371 -37.8252 69.8525
c-6.81348 22.8154 -10.2227 46.7246 -10.2227 71.7227v16.8799c0 25.0039 3.40918 48.7568 10.2227 71.2598s19.2549 45.3184 37.3076 68.4463c18.0586 23.1279 41.4033 42.9727 70.0215 59.54c28.624 16.5674 66.6172 30.002 113.974 40.3213
c47.3623 10.3135 101.712 15.4727 163.043 15.4727h72.5771c262.368 0 393.559 -85.0127 393.559 -255.032v-16.8799c0 -173.771 -131.184 -260.66 -393.558 -260.66zM461.388 133.665c70.875 0 121.636 12.8096 152.305 38.4395s46.0029 56.2568 46.0029 91.8867v4.69043
c0 36.2549 -15.334 66.5752 -46.0029 90.9541s-81.0977 36.5684 -151.287 36.5684h-1.02246c-71.5547 0 -122.495 -12.0332 -152.821 -36.0996s-45.4863 -54.5371 -45.4863 -91.418v-4.69043c0 -35.6299 15.334 -66.2568 46.0029 -91.8867s81.4346 -38.4443 152.31 -38.4443
z" />
    <glyph glyph-name="o" unicode="&#xf2;" horiz-adv-x="923" 
d="M497.146 -2.29297l-71.5439 -0.000976562c-61.3311 0 -115.681 5.46582 -163.043 16.4102c-47.3623 10.9385 -85.3555 24.8477 -113.979 41.7217c-28.624 16.8799 -52.1309 37.1934 -70.5322 60.9463s-31.0059 47.0371 -37.8252 69.8525
c-6.81348 22.8154 -10.2227 46.7246 -10.2227 71.7227v16.8799c0 25.0039 3.40918 48.7568 10.2227 71.2598s19.2549 45.3184 37.3076 68.4463c18.0586 23.1279 41.4033 42.9727 70.0215 59.54c28.624 16.5674 66.6172 30.002 113.974 40.3213
c47.3623 10.3135 101.712 15.4727 163.043 15.4727h72.5771c262.368 0 393.559 -85.0127 393.559 -255.032v-16.8799c0 -173.771 -131.184 -260.66 -393.558 -260.66zM461.388 133.665c70.875 0 121.636 12.8096 152.305 38.4395s46.0029 56.2568 46.0029 91.8867v4.69043
c0 36.2549 -15.334 66.5752 -46.0029 90.9541s-81.0977 36.5684 -151.287 36.5684h-1.02246c-71.5547 0 -122.495 -12.0332 -152.821 -36.0996s-45.4863 -54.5371 -45.4863 -91.418v-4.69043c0 -35.6299 15.334 -66.2568 46.0029 -91.8867s81.4346 -38.4443 152.31 -38.4443
z" />
    <glyph glyph-name="p" unicode="p" horiz-adv-x="960" 
d="M51 517.103l227.951 0.000976562v-72.1982c70.1953 56.2617 163.218 84.3867 279.067 84.3867h18.4014c60.6523 0 112.958 -6.56055 156.91 -19.6875c43.959 -13.127 78.3682 -31.5645 103.246 -55.3174c24.8721 -23.7529 43.1045 -50.3145 54.6865 -79.6963
c11.582 -29.376 17.3789 -62.1914 17.3789 -98.4463v-17.8184c0 -35.0049 -5.95898 -67.1953 -17.8896 -96.5771c-11.9248 -29.376 -30.6689 -56.5693 -56.2207 -81.5732c-25.5576 -25.0039 -60.8203 -44.5361 -105.801 -58.6016
c-44.9746 -14.0654 -98.1338 -21.0947 -159.465 -21.0947h-16.3564c-70.1953 0 -129.308 9.6875 -177.355 29.0625c-48.042 19.375 -80.2441 37.5059 -96.6006 54.3857v-247.539h-227.953v680.714zM278.951 268.627l-0.00195312 -3.74414
c0 -35.0049 17.7158 -65.6377 53.1533 -91.8867c35.4375 -26.2549 85.5303 -39.3818 150.266 -39.3818h5.11133c66.7861 0 114.828 12.8145 144.132 38.4375c29.3037 25.6299 43.9521 56.5693 43.9521 92.8242v3.75195c0 37.5059 -14.4805 68.6016 -43.4414 93.293
c-28.9668 24.6914 -77.1768 37.0371 -144.642 37.0371h-5.11133c-66.7861 0 -117.384 -12.8145 -151.799 -38.4443s-51.6191 -56.2627 -51.6191 -91.8867z" />
    <glyph glyph-name="q" unicode="q" horiz-adv-x="960" 
d="M702.158 517.103l206.486 -0.000976562v-680.72h-227.953v245.656c-10.9023 -11.251 -24.5352 -22.0332 -40.8916 -32.3467s-45.3174 -21.0957 -86.8887 -32.3525c-41.5713 -11.251 -88.5908 -16.874 -141.064 -16.874h-8.17871
c-120.624 0 -209.558 24.0664 -266.8 72.1982s-85.8662 110.642 -85.8662 187.524v17.8184c0 73.7617 27.6016 134.077 82.7988 180.964c55.1973 46.8809 141.063 70.3213 257.599 70.3213h14.3125c112.446 0 204.783 -26.8799 277.023 -80.6348
c8.85742 15.0039 15.334 37.8193 19.4229 68.4463zM680.691 268.631c0 35.0049 -18.5742 65.1631 -55.7139 90.4795s-88.0801 37.9746 -152.821 37.9746h-5.11133c-66.1064 0 -113.126 -12.1895 -141.064 -36.5684s-41.9141 -55.3184 -41.9141 -92.8242v-3.74609
c0 -35.6299 14.8232 -66.4189 44.4697 -92.3555c29.6465 -25.9424 76.4971 -38.9131 140.559 -38.9131h5.11133c64.0615 0 114.49 13.2842 151.287 39.8516c36.8027 26.5615 55.1982 57.3506 55.1982 92.3555v3.74609z" />
    <glyph glyph-name="r" unicode="r" horiz-adv-x="786" 
d="M278.941 5.15723l-227.94 -0.000976562v504.44h225.908v-89.0713c9.53711 13.127 21.4678 26.248 35.7734 39.3818c14.3125 13.127 38.6729 26.5674 73.0879 40.3203s72.4082 20.626 113.979 20.626h11.2451c76.3291 0 132.718 -20.3193 169.178 -60.9463
c36.46 -40.6328 54.6865 -95.3252 54.6865 -164.083v-29.0693h-219.78c0 35.6299 -9.36914 64.6992 -28.1133 87.2021c-18.7383 22.5088 -48.2168 33.7539 -88.4229 33.7539h-1.02246c-36.8027 0 -65.7637 -11.7207 -86.8887 -35.1611s-31.6904 -52.3535 -31.6904 -86.7324
v-260.66z" />
    <glyph glyph-name="s" unicode="s" horiz-adv-x="860" 
d="M404.688 -11.7354c-235.795 0 -353.686 59.707 -353.686 179.104v5.62891h235.109c0 -45.6367 47.0254 -68.4463 141.064 -68.4463h2.04492c39.5264 0 70.3633 2.50195 92.5107 7.49902c22.1475 5.00293 35.9482 10.626 41.4023 16.874
c5.44824 6.25391 8.17871 14.0654 8.17871 23.4404v1.87598c0 14.3779 -7.66699 25.0039 -23.001 31.877c-15.3281 6.87988 -47.873 10.9395 -97.623 12.1904l-98.1338 1.87598c-57.2422 1.25098 -106.144 6.56055 -146.687 15.9355
c-40.5488 9.38086 -71.2178 21.877 -92 37.5059c-20.7891 15.623 -35.6064 31.8779 -44.4707 48.7578c-8.85742 16.874 -13.2891 35.3174 -13.2891 55.3184v5.62891c0 17.499 2.21289 33.1279 6.64453 46.8809s13.9688 27.8125 28.624 42.1904
c14.6484 14.3779 34.2402 26.2549 58.7754 35.6299s58.2646 17.1865 101.201 23.4404c42.9307 6.25391 93.7021 9.38086 152.31 9.38086h40.8857c229.661 0 344.488 -52.8223 344.488 -158.461v-6.56055h-232.042c-1.36523 6.24805 -3.4043 11.7207 -6.13477 16.4111
c-2.72363 4.69043 -8.17773 10 -16.3564 15.9355c-8.17871 5.94141 -21.9795 10.626 -41.4033 14.0654c-19.418 3.43945 -43.4414 5.15332 -72.0654 5.15332h-1.02246c-51.7939 0 -86.5518 -2.81445 -104.268 -8.44336
c-17.7158 -5.62305 -26.5801 -15.3164 -26.5801 -29.0635v-1.87598c0 -12.502 8.17871 -22.0332 24.5352 -28.5996s46.6826 -10.4688 90.9775 -11.7197l98.1338 -1.87598c82.457 -1.25098 146.519 -8.44336 192.179 -21.5703s76.1543 -30.1572 91.4883 -51.1025
c15.334 -20.9385 23.001 -49.5391 23.001 -85.7939v-5.62891c0 -25.6299 -4.94336 -47.9756 -14.8232 -67.0381c-9.87988 -19.0684 -27.2588 -37.0371 -52.1367 -53.9111c-24.8721 -16.8799 -62.1855 -29.8506 -111.936 -38.9131s-111.081 -13.5967 -184.001 -13.5967
h-41.8955z" />
    <glyph glyph-name="t" unicode="t" horiz-adv-x="543" 
d="M294.287 5.15039c-90.6416 0 -135.952 47.8252 -135.952 143.464v222.216h-107.335v138.767h107.335v147.21h224.886v-147.21h108.356v-138.767h-108.356v-182.84c0 -15.0039 3.06641 -26.0986 9.2002 -33.2852c6.13379 -7.19238 18.4014 -10.7881 36.8027 -10.7881
h62.3535v-138.767h-197.29z" />
    <glyph glyph-name="u" unicode="u" horiz-adv-x="865" 
d="M813.575 7.9707l-225.902 0.000976562v87.2012c-11.582 -10 -19.4238 -16.7227 -23.5127 -20.1562c-4.08887 -3.43945 -15.8457 -11.4072 -35.2695 -23.9092c-19.418 -12.502 -37.4824 -21.7207 -54.1758 -27.6621c-16.6992 -5.94141 -39.0156 -11.877 -66.96 -17.8184
c-27.9385 -5.94141 -56.9053 -8.90625 -86.8887 -8.90625h-8.17871c-87.2314 0 -152.652 20.1631 -196.269 60.4775s-65.4209 87.3516 -65.4209 141.112v314.108h230.004v-249.409c0 -38.7568 11.7559 -69.3838 35.2627 -91.8867
c23.5127 -22.5029 58.7822 -33.7539 105.802 -33.7539c49.75 0 89.4453 12.502 119.086 37.5059c29.6465 25.0039 44.4697 58.1318 44.4697 99.3906v238.152h227.953v-504.447z" />
    <glyph glyph-name="u" unicode="&#xfc;" horiz-adv-x="865" 
d="M813.575 7.9707l-225.902 0.000976562v87.2012c-11.582 -10 -19.4238 -16.7227 -23.5127 -20.1562c-4.08887 -3.43945 -15.8457 -11.4072 -35.2695 -23.9092c-19.418 -12.502 -37.4824 -21.7207 -54.1758 -27.6621c-16.6992 -5.94141 -39.0156 -11.877 -66.96 -17.8184
c-27.9385 -5.94141 -56.9053 -8.90625 -86.8887 -8.90625h-8.17871c-87.2314 0 -152.652 20.1631 -196.269 60.4775s-65.4209 87.3516 -65.4209 141.112v314.108h230.004v-249.409c0 -38.7568 11.7559 -69.3838 35.2627 -91.8867
c23.5127 -22.5029 58.7822 -33.7539 105.802 -33.7539c49.75 0 89.4453 12.502 119.086 37.5059c29.6465 25.0039 44.4697 58.1318 44.4697 99.3906v238.152h227.953v-504.447z" />
    <glyph glyph-name="u" unicode="&#xfb;" horiz-adv-x="865" 
d="M813.575 7.9707l-225.902 0.000976562v87.2012c-11.582 -10 -19.4238 -16.7227 -23.5127 -20.1562c-4.08887 -3.43945 -15.8457 -11.4072 -35.2695 -23.9092c-19.418 -12.502 -37.4824 -21.7207 -54.1758 -27.6621c-16.6992 -5.94141 -39.0156 -11.877 -66.96 -17.8184
c-27.9385 -5.94141 -56.9053 -8.90625 -86.8887 -8.90625h-8.17871c-87.2314 0 -152.652 20.1631 -196.269 60.4775s-65.4209 87.3516 -65.4209 141.112v314.108h230.004v-249.409c0 -38.7568 11.7559 -69.3838 35.2627 -91.8867
c23.5127 -22.5029 58.7822 -33.7539 105.802 -33.7539c49.75 0 89.4453 12.502 119.086 37.5059c29.6465 25.0039 44.4697 58.1318 44.4697 99.3906v238.152h227.953v-504.447z" />
    <glyph glyph-name="u" unicode="&#xfa;" horiz-adv-x="865" 
d="M813.575 7.9707l-225.902 0.000976562v87.2012c-11.582 -10 -19.4238 -16.7227 -23.5127 -20.1562c-4.08887 -3.43945 -15.8457 -11.4072 -35.2695 -23.9092c-19.418 -12.502 -37.4824 -21.7207 -54.1758 -27.6621c-16.6992 -5.94141 -39.0156 -11.877 -66.96 -17.8184
c-27.9385 -5.94141 -56.9053 -8.90625 -86.8887 -8.90625h-8.17871c-87.2314 0 -152.652 20.1631 -196.269 60.4775s-65.4209 87.3516 -65.4209 141.112v314.108h230.004v-249.409c0 -38.7568 11.7559 -69.3838 35.2627 -91.8867
c23.5127 -22.5029 58.7822 -33.7539 105.802 -33.7539c49.75 0 89.4453 12.502 119.086 37.5059c29.6465 25.0039 44.4697 58.1318 44.4697 99.3906v238.152h227.953v-504.447z" />
    <glyph glyph-name="u" unicode="&#xf9;" horiz-adv-x="865" 
d="M813.575 7.9707l-225.902 0.000976562v87.2012c-11.582 -10 -19.4238 -16.7227 -23.5127 -20.1562c-4.08887 -3.43945 -15.8457 -11.4072 -35.2695 -23.9092c-19.418 -12.502 -37.4824 -21.7207 -54.1758 -27.6621c-16.6992 -5.94141 -39.0156 -11.877 -66.96 -17.8184
c-27.9385 -5.94141 -56.9053 -8.90625 -86.8887 -8.90625h-8.17871c-87.2314 0 -152.652 20.1631 -196.269 60.4775s-65.4209 87.3516 -65.4209 141.112v314.108h230.004v-249.409c0 -38.7568 11.7559 -69.3838 35.2627 -91.8867
c23.5127 -22.5029 58.7822 -33.7539 105.802 -33.7539c49.75 0 89.4453 12.502 119.086 37.5059c29.6465 25.0039 44.4697 58.1318 44.4697 99.3906v238.152h227.953v-504.447z" />
    <glyph glyph-name="v" unicode="v" horiz-adv-x="925" 
d="M331.084 2.34863l-280.085 504.44h245.332l176.845 -345.048l171.733 345.048h228.976l-268.845 -504.44h-273.956z" />
    <glyph glyph-name="w" unicode="w" horiz-adv-x="1290" 
d="M515.103 2.34863h-236.148l-227.953 504.44h237.153l125.736 -322.545l123.691 322.545h239.198l127.78 -322.545l121.646 322.545h212.625l-212.625 -504.44h-241.243l-134.931 333.796z" />
    <glyph glyph-name="x" unicode="x" horiz-adv-x="933" 
d="M51 2.35449l287.247 255.971l-278.045 248.471h268.845l144.131 -132.206l144.137 132.206h255.555l-276.001 -244.719l285.201 -259.723h-257.6l-161.51 144.396l-158.443 -144.396h-253.517z" />
    <glyph glyph-name="y" unicode="y" horiz-adv-x="925" 
d="M183.88 -23.9062h128.808c17.7158 0 26.5801 5.31543 26.5801 15.9414c0 5.62891 -8.52148 23.4404 -25.5576 53.4473l-262.711 461.312h245.332l176.845 -341.295l171.733 341.295h228.976l-288.269 -538.194c-27.2588 -50.0078 -55.8828 -86.2627 -85.8662 -108.766
s-68.8301 -33.7539 -116.535 -33.7539h-199.335v150.013z" />
    <glyph glyph-name="y" unicode="&#xff;" horiz-adv-x="925" 
d="M183.88 -23.9062h128.808c17.7158 0 26.5801 5.31543 26.5801 15.9414c0 5.62891 -8.52148 23.4404 -25.5576 53.4473l-262.711 461.312h245.332l176.845 -341.295l171.733 341.295h228.976l-288.269 -538.194c-27.2588 -50.0078 -55.8828 -86.2627 -85.8662 -108.766
s-68.8301 -33.7539 -116.535 -33.7539h-199.335v150.013z" />
    <glyph glyph-name="y" unicode="&#xfd;" horiz-adv-x="925" 
d="M183.88 -23.9062h128.808c17.7158 0 26.5801 5.31543 26.5801 15.9414c0 5.62891 -8.52148 23.4404 -25.5576 53.4473l-262.711 461.312h245.332l176.845 -341.295l171.733 341.295h228.976l-288.269 -538.194c-27.2588 -50.0078 -55.8828 -86.2627 -85.8662 -108.766
s-68.8301 -33.7539 -116.535 -33.7539h-199.335v150.013z" />
    <glyph glyph-name="z" unicode="z" horiz-adv-x="793" 
d="M742.015 2.34863l-691.016 0.000976562v121.894l373.112 246.601h-373.112v135.946h688.977v-117.203l-390.491 -247.533h392.53v-139.705z" />
    <glyph glyph-name="braceleft" unicode="{" horiz-adv-x="366" 
d="M217.186 -55.5488c-51.042 0 -89.0361 7.22754 -113.98 21.6904c-24.9502 14.4688 -37.4219 37.2178 -37.4219 68.2529c0 23.6748 12.1895 60.3633 36.5625 110.077c24.373 49.707 36.5625 80.3516 36.5625 91.9219c0 24.1982 -12.9053 36.2979 -38.7148 36.2979
h-54.1934v88.374h54.1934c25.8096 0 38.7148 9.99414 38.7148 29.9834c0 12.6221 -12.1895 43.1348 -36.5625 91.5312s-36.5625 84.165 -36.5625 107.311c0 63.6523 50.4648 95.4756 151.401 95.4756h107.533v-86.7988h-66.2441
c-25.2324 0 -37.8486 -10.2588 -37.8486 -30.7705c0 -11.5703 9.32129 -38.5352 27.957 -80.876c18.6357 -42.3467 27.9629 -71.6748 27.9629 -87.9775c0 -22.623 -6.16406 -40.2422 -18.498 -52.8643c-12.3281 -12.6221 -33.4053 -22.0938 -63.2266 -28.4023
c29.8213 -5.78516 50.8984 -14.3359 63.2266 -25.6475c12.3271 -11.3115 18.4971 -26.4297 18.4971 -45.3721c0 -17.8838 -9.32129 -49.1836 -27.9629 -93.8936s-27.9561 -72.5889 -27.9561 -83.6416c0 -24.7275 14.9131 -37.085 44.7344 -37.085h59.3594v-87.5859h-107.533
z" />
    <glyph glyph-name="verticalbar" unicode="|" horiz-adv-x="259" 
d="M198.496 692.921v-740.921h-138.496v740.921h138.496z" />
    <glyph glyph-name="braceright" unicode="}" horiz-adv-x="366" 
d="M41 39.7588l59.3594 0.00292969c29.8213 0 44.7344 12.3633 44.7344 37.085c0 11.0469 -9.17676 38.9258 -27.5303 83.6416s-27.5303 76.0098 -27.5303 93.8936c0 18.9424 6.02539 34.0605 18.0645 45.3721c12.0449 11.3115 32.9775 19.8564 62.7988 25.6475
c-29.25 6.31445 -50.0391 15.7793 -62.373 28.4014c-12.3271 12.6221 -18.4971 30.248 -18.4971 52.8652c0 16.3086 9.17676 45.6299 27.5303 87.9766s27.5303 69.3047 27.5303 80.875c0 20.5117 -12.6162 30.7705 -37.8486 30.7705h-66.2383v86.8047h107.527
c100.937 0 151.401 -31.8232 151.401 -95.4756c0 -23.1455 -12.1895 -58.9141 -36.5625 -107.311s-36.5625 -78.9033 -36.5625 -91.5312c0 -19.9893 12.9053 -29.9834 38.709 -29.9834h54.1992v-88.374h-54.1992c-25.8037 0 -38.709 -12.0996 -38.709 -36.2979
c0 -11.5703 12.1836 -42.2148 36.5625 -91.9219c24.373 -49.7139 36.5625 -86.4023 36.5625 -110.077c0 -31.0352 -12.4717 -53.7842 -37.416 -68.2529c-24.9502 -14.4629 -62.9434 -21.6973 -113.985 -21.6973h-107.527v87.5859z" />
    <glyph glyph-name="asciitilde" unicode="~" horiz-adv-x="598" 
d="M443.336 227.295c-29.8213 -0.00585938 -55.1982 3.41504 -76.1309 10.252s-51.4688 20.2529 -91.6152 40.2422c-36.1348 17.3613 -58.499 26.3037 -67.1045 26.8271c-2.86816 0.529297 -5.73633 0.788086 -8.59863 0.788086
c-15.4844 0 -23.2295 -8.67773 -23.2295 -26.0391v-67.8564h-143.656v102.578c0 34.7217 9.60938 64.3076 28.8164 88.7646c19.2129 24.4629 51.1865 36.6885 95.915 36.6885c20.0732 0 40.002 -2.50195 59.7861 -7.49902s34.6973 -9.72949 44.7334 -14.2031
c10.0361 -4.46777 29.6758 -13.8066 58.9258 -28.0107c43.0146 -20.5117 69.1074 -30.7705 78.2842 -30.7705c14.3359 0 21.5039 8.41309 21.5039 25.251v72.6006h143.662v-120.721c0 -29.9834 -9.60938 -55.6309 -28.8164 -76.9307
c-19.2129 -21.3057 -50.0381 -31.9619 -92.4756 -31.9619z" />
    <glyph glyph-name="nonbreakingspace" unicode="&#xa0;" horiz-adv-x="536" 
 />
    <glyph glyph-name="softhyphen" unicode="&#xad;" 
 />
    </font>
</defs>
</svg>
